<?xml version="1.0" encoding="utf-8"?>
<!-- Generator: Adobe Illustrator 20.1.0, SVG Export Plug-In . SVG Version: 6.00 Build 0)  -->
<svg version="1.1" id="Layer_1" xmlns="http://www.w3.org/2000/svg" xmlns:xlink="http://www.w3.org/1999/xlink" x="0px" y="0px"
	 viewBox="0 0 1055 479" style="enable-background:new 0 0 1055 479;" xml:space="preserve">
<style type="text/css">
	.st0{fill: none;}
	.st1{fill:#8299E6;}
</style>
<g>
	<path class="st0" d="M0.5,0.5c352,0,704,0,1056,0c0,160,0,320,0,480c-352,0-704,0-1056,0C0.5,320.5,0.5,160.5,0.5,0.5z
		 M172.9,349.5c0-19.4,0-38.1,0-57.5c1.5,1.6,2.5,2.5,3.2,3.5c10.3,14.6,20.5,29.2,30.9,43.7c1.1,1.5,3.2,3.1,4.9,3.1
		c27,0.2,54,0.2,81,0c1.4,0,3.2-1.3,4.1-2.5c8.8-12.8,17.3-25.7,26.1-38.5c1.8-2.6,4.1-4.8,7.1-8.4c0,19.8,0,38,0,56.7
		c-8.2,0-16.3,0-24.4,0c0,41.2,0,81.8,0,122.5c62.6,0,125,0,187.4,0c0-40.9,0-81.5,0-122.7c-8,0-15.7,0-23.4,0c0-71.8,0-143,0-214.5
		c8.3,0,16.3,0,24.4,0c0-41.9,0-83.4,0-124.9c-0.5-0.2-0.8-0.5-1.1-0.5c-50,0-100-0.1-150,0c-1.4,0-3.3,1.4-4,2.7
		c-14.3,24.8-28.5,49.6-42.6,74.5c-13.4,23.7-26.8,47.5-40.2,71.3c-1.5,2.6-3.1,5.2-5.4,8.8c-3.5-6.2-6.3-11.3-9.2-16.4
		c-15.8-27.7-31.6-55.4-47.4-83.1c-10.4-18.4-20.9-36.8-31.1-55.3c-1.6-3-3.5-3.6-6.6-3.6C109,8.6,61.3,8.6,13.7,8.6
		c-1.6,0-3.2,0.1-4.8,0.2c0,41.9,0,83.5,0,125.7c8.4,0,16.4,0,24.4,0c0,71.7,0,142.8,0,214.4c-8.4,0-16.5,0-24.4,0
		c0,41.5,0,82.4,0,123.2c62.7,0,125.1,0,187.3,0c0-41,0-81.6,0-122.6C188.3,349.5,180.7,349.5,172.9,349.5z M754.5,274.3
		c12.4,0,24.3-0.1,36.3,0.1c1.1,0,2.5,1.4,3.1,2.5c4.2,7.7,8.3,15.4,12.3,23.2c7.3,14.3,14.4,28.6,21.8,42.8
		c13.4,25.8,26.9,51.5,40.2,77.4c7.4,14.2,14.5,28.6,21.7,42.8c2.8,5.5,7.6,8.2,13.6,8.2c42.7,0.1,85.3,0,128,0
		c5.9,0,12.8-7.1,12.8-13.1c0-22.2,0-44.3,0-66.5c0-5.9-7.4-13.2-13.4-13.2c-14.8,0-29.7,0.1-44.5-0.1c-2,0-4.9-1.1-5.8-2.6
		c-5.9-10.3-11.3-20.9-16.9-31.4c-11.6-21.7-23.2-43.3-34.8-65c-4.3-8-8.5-15.9-12.8-23.9c0.7-0.6,1-0.9,1.4-1.1
		c18.2-9.8,34.7-21.8,47.8-38.1c7.5-9.3,14-19.4,17.4-30.8c3.4-11.3,6.3-23,7.4-34.7c1.6-16.5,0.2-33.1-4.7-49.1
		C981,87.3,974.5,73.9,966,61.3c-13.7-20.4-31.7-35-54.6-44C890,9,867.6,5.7,844.9,5.7c-91.2-0.3-182.3-0.1-273.5-0.1
		c-5.9,0-11.9,6.1-11.9,12.1c0,22.8,0,45.7,0,68.5c0,5.7,5.8,11.4,11.7,11.4c14.7,0,29.3,0,44,0c1.7,0,3.5,0,5,0
		c0,94.2,0,187.6,0,281.2c-16.4,0-32.4,0-48.4,0c-5.7,0-12.2,6.6-12.3,12.3c0,22.5,0,45,0,67.5c0,7.2,5.8,13,13,13c75,0,150,0,225,0
		c6.5,0,12.6-6,12.6-12.4c0-22.7,0.1-45.3-0.1-68c0-2.3-1.5-4.8-2.8-6.9c-3-4.9-7.6-5.9-13.2-5.7c-11.5,0.4-23,0.1-34.5,0.1
		c-1.6,0-3.2-0.2-5-0.2C754.5,343.7,754.5,309.4,754.5,274.3z"/>
	<path class="st1" d="M172.9,349.5c7.7,0,15.3,0,23.3,0c0,41,0,81.6,0,122.6c-62.2,0-124.6,0-187.3,0c0-40.8,0-81.8,0-123.2
		c7.9,0,16,0,24.4,0c0-71.6,0-142.7,0-214.4c-8,0-16,0-24.4,0c0-42.2,0-83.7,0-125.7c1.6-0.1,3.2-0.2,4.8-0.2c47.7,0,95.3,0,143-0.1
		c3.1,0,5,0.6,6.6,3.6c10.2,18.5,20.6,36.9,31.1,55.3c15.8,27.7,31.6,55.4,47.4,83.1c2.9,5.1,5.8,10.2,9.2,16.4
		c2.2-3.7,3.9-6.2,5.4-8.8c13.4-23.8,26.7-47.6,40.2-71.3c14.1-24.9,28.3-49.7,42.6-74.5c0.7-1.3,2.7-2.7,4-2.7
		c50-0.1,100-0.1,150,0c0.3,0,0.6,0.2,1.1,0.5c0,41.5,0,83.1,0,124.9c-8.2,0-16.1,0-24.4,0c0,71.5,0,142.7,0,214.5
		c7.7,0,15.4,0,23.4,0c0,41.1,0,81.7,0,122.7c-62.4,0-124.8,0-187.4,0c0-40.7,0-81.3,0-122.5c8.1,0,16.1,0,24.4,0
		c0-18.7,0-36.9,0-56.7c-3,3.5-5.3,5.8-7.1,8.4c-8.7,12.8-17.3,25.7-26.1,38.5c-0.8,1.2-2.7,2.5-4.1,2.5c-27,0.1-54,0.2-81,0
		c-1.7,0-3.8-1.6-4.9-3.1c-10.4-14.5-20.6-29.1-30.9-43.7c-0.7-1.1-1.8-1.9-3.2-3.5C172.9,311.4,172.9,330.1,172.9,349.5z
		 M319.9,437.8c0,5.3,0.3,9.9-0.1,14.5c-0.3,4.2,1.4,4.9,5.2,4.9c49,0.1,97.9,0.4,146.9,0.6c2.1,0,4.2-0.2,6.4-0.3
		c0-30.9,0-61.3,0-92.3c-8,0-15.8,0-24.1,0c0-80.8,0-161,0-242.5c-2.6,3.2-4.1,5.3-5.9,7.2c-15.7,17.4-31.4,34.7-47.3,52
		c-3.1,3.3-3.5,6.5-1.8,10.4c5.7,13.8,11.4,27.5,17.1,41.3c2.3,5.5,0.5,9.7-5.1,11.9c-2.4,0.9-4.9,1.7-7.5,2.7
		c6.9,16.8,13.6,33,20.9,50.7c-9.2,2.3-17.2,4.4-25.8,6.6c0.2,2.2,0.6,4.7,0.6,7.1c-0.1,4.4,0.7,9.5-1.2,13.1
		c-2.3,4.5-7.1,7.8-5.5,13.9c0.1,0.4-0.6,1.1-1,1.6c-2.1,2.7-2.6,5.4-1.2,8.7c1.1,2.7,1.7,5.7,2.3,8.6c1.9,8.8-1.1,14.9-8.9,19.3
		c-1.8,1-3.4,2.6-5,4c-4.1,3.7-8.3,6.2-14.4,6.2c-6.7,0-13.5,1.9-20.5,3.1c1.5,6.1,2.2,11.6,4.2,16.6c3.8,9.7,8.7,19,12.3,28.8
		c1.1,3,0.5,7.2-0.7,10.3c-0.4,1-5.1,0.5-7.8,0.3c-1.8-0.1-3.5-0.9-5.2-1.4C338.1,443.1,329.5,440.6,319.9,437.8z M406.8,291.6
		c-0.8-2.4-1.4-4-1.9-5.5c-4.2-12.5-8.6-25-12.5-37.6c-2.3-7.5-0.8-9.3,7.1-10.9c0.6-0.1,1.2-0.2,2.5-0.5c-1-3.2-1.8-6.2-2.9-9.1
		c-5.5-13.8-11.7-27.4-16.5-41.5c-1.8-5.3-4.4-8.8-9-11.3c-6.3-3.6-12.6-7.3-19-10.9c-7.6-4.4-15.2-7.8-24.5-5.1
		c-13.4,3.9-27.1,7.2-40.6,10.7c-3,0.8-3.9,2.6-2.6,5.1c3.2,5.9,6.6,11.8,10.1,17.5c3.5,5.9,3.1,7.7-2,12
		c-11.1,9.4-22.2,18.9-33.1,28.5c-1.2,1.1-2.4,3.8-1.9,5c1.6,3.9,3.9,7.6,6.3,11.2c2.9,4.4,6.2,8.6,9,13.1c1.9,2.9,1.9,5.8-2.1,7.1
		c-7,2.4-14.1,4.7-21.2,6.8c-0.8,0.2-2.9-1.4-3.3-2.5c-4.9-16.4-15.9-28.5-27.8-40c-2.6-2.5-5.4-4.1-9.3-2.2
		c-6.7,3.2-13.6,5.9-20.2,9.3c-1.6,0.8-3,3.3-3.2,5.2c-0.6,7.6,0,15.3-1.2,22.8c-1,6.1,0.7,10.4,4.6,14.8
		c7.6,8.4,14.9,16.9,22.2,25.5c2.5,2.9,5.5,3.6,8.3,1.5c3.9-2.9,7.3-6.7,11-10c3.4-3,7-5.9,11.1-9.3c2.1,5.9,0.6,9.5-1.9,13
		c-3.1,4.3-6.4,8.4-9.1,12.9c-3.5,5.8-0.6,10.6,6,10.6c14.5,0,29,0.1,43.5-0.1c1.8,0,4.2-1,5.2-2.3c14.5-20.6,28.9-41.4,43.5-62.5
		c4.2,1.2,8.9,2.6,13.5,4c0,32.5,0,64.9,0,97.8c-5.2,0-10,0-14.8,0c5.5,2.2,11.1,3.6,16.6,4.8c10.3,2.2,20.9,5.7,29.6-4.2
		c0.5-0.6,1.4-0.8,2.7-1.5c-1.4-4.5-2.5-9-4.1-13.2c-1.2-3.2-3.1-5.2-7.3-3.9c-3.3,1.1-4.8-1.1-4-4.2c0.5-1.8,1.7-3.6,3.2-4.8
		c2.5-2.1,5.4-3.7,8.2-5.5c0-0.5,0.1-1,0.1-1.4c-9.1-1.6-18.2-3.2-27.5-4.9c-1.2-5.9,0-7.4,6.1-7.4c5.8,0,11.7,0.2,17.5,0
		c4.1-0.2,8.3-0.9,13.7-1.5c-4.5-4.3-8-7.9-11.7-11.1c-4.3-3.8-4.1-7.1,1.2-9.4c2.5-1.1,5.3-2,8-2.3
		C390.3,293,398.2,292.4,406.8,291.6z M110.2,359.7c-1.5,1-2.6,1.5-3.4,2.2c-7.6,7.5-15.1,15-22.8,22.4c-1.9,1.8-4.3,3.4-6.8,4.2
		c-16.1,5-32.2,9.8-48.3,14.5c-3.4,1-4.7,2.5-4.6,6.2c0.2,14.3,0.1,28.7,0.1,43c0,1.4,0.2,2.9,0.3,4.5c52.6,0,104.8,0,157.3,0
		c0-23.8,0-47.2,0-70.4c-2.1,3.2-12.5,1.6-23.2-4.3c1-5.5,2.1-11.3,3.1-17.3c-1.1-0.2-2.7-0.5-4.5-0.8c-0.3-2.7-0.5-5.3-0.8-7.7
		c-8,0-15.7,0-23.3,0c7,3.3,15.6,2.8,20.2,10.9c-9.5,7.5-20.2,12.2-31.4,16c-2.9,1-4.6,0.1-5.5-3
		C114.6,373.5,112.4,366.9,110.2,359.7z M48.5,166.1c0.4,0.3,0.8,0.5,1.3,0.8c31.8-46.2,70.7-84.8,119.8-112.5
		c-5.3-9.4-10.3-18.5-15.5-27.5c-0.6-1.1-2.7-1.9-4.1-1.9c-14-0.4-27.9-0.7-41.9-0.8c-25.8-0.1-51.6,0-77.5,0c-1.9,0-3.9,0.2-6,0.3
		c0,31.5,0,62.5,0,94.2c8.1,0,15.8,0,23.8,0C48.5,134.9,48.5,150.5,48.5,166.1z M48.5,223.6c8-9,15.6-17.4,23.1-26
		c9.5-11,18.5-22.5,28.3-33.2c9-9.9,18.5-19.5,28.4-28.5c10-9.1,20.5-17.8,31.2-26c8.4-6.5,17.4-12.1,26.3-17.9
		c2.7-1.7,3.8-3.1,1.6-6.2c-2.7-4-5-8.2-7-12.6c-1.6-3.4-3.5-3.4-6.2-1.6c-4.3,2.8-8.9,5.3-12.9,8.4c-14.7,11.5-29.4,23-43.8,34.9
		c-8,6.6-15.9,13.6-23,21.2c-8.2,8.8-15.7,18.3-23,28c-7.3,9.8-14,20-20.8,30.2c-1.2,1.8-2.1,4.2-2.2,6.4
		C48.3,208.1,48.5,215.6,48.5,223.6z M349.3,25.2c-0.1,0.3-0.1,0.6-0.2,0.9c4.4,0.6,8.8,0.9,13.1,2c33.1,8.2,66.4,14.8,100.7,14.1
		c2.9-0.1,4.3,0.9,4.8,3.6c1.5,7.5,2.9,15.1,4.8,22.5c0.4,1.6,2.4,2.7,3.7,4.1c0.8-1.5,2.3-3,2.3-4.5c0.2-13,0.1-26,0.1-39
		c0-1.3-0.3-2.5-0.4-3.8C434.9,25.2,392.1,25.2,349.3,25.2z M48.9,283.7c0,27.3,0,53.5,0,81.3c11.7-16.3,29.4-17.6,46.4-23.3
		c-13.8-8.8-26.9-16.5-43.6-21.3c2.5-2,3.9-3.7,5.5-4.2c8.9-2.7,17.9-5.1,28.3-8C72.7,299.7,61.1,291.9,48.9,283.7z M127.8,316.2
		c0.6,0.3,1.2,0.5,1.8,0.8c2.7-4.1,5.9-7.9,8.1-12.2c7.5-14.2,14.8-28.5,22.1-42.8c1.2-2.4,3.5-4.6,0.9-7.7c-0.4-0.4,0.3-2.3,1-2.9
		c1.9-1.8,4-3.4,6.1-5.1c16.3-13,31.5-27.3,50.6-36.8c-0.6-1.7-1.2-3.2-1.8-4.7c-0.2-0.6-0.6-1.5-1-1.6c-1.8-0.5-4.2-1.6-5.4-1
		c-19.3,10.7-34.6,26.3-48.7,42.9c-11.6,13.7-20.3,29.4-27,46C131.4,299.1,130,307.8,127.8,316.2z M331.4,56.4
		c15.8,0.8,30.4,2,45,2.2c20.6,0.2,39.7-2.9,43.3-6.4c-1-0.4-1.8-1.1-2.7-1.2c-23.9-3.8-47.7-7.6-71.6-11.3
		c-1.7-0.3-4.4,0.4-5.2,1.6C337.1,45.8,334.7,50.6,331.4,56.4z M478.3,119.4c0-7.9,0-15.4,0-24c-7.5,8.4-14.2,15.8-21.6,24
		C464.9,119.4,471.4,119.4,478.3,119.4z M47.1,365.7c-0.2-0.3-0.4-0.6-0.7-0.9c-7.2,0-14.5,0-21.7,0c0,6.3,0,12.1,0,19
		C32.7,377.4,39.9,371.5,47.1,365.7z M72,271c-3.5-13.2-15.3-15.6-23.3-22.4c-0.1,3.4-0.6,8,1.2,9.3C56.5,262.7,64,266.4,72,271z
		 M156,322.4c-3.7,6.2-7.9,11.7-9.5,18.5C153.7,336.8,159.9,332.3,156,322.4z"/>
	<path class="st1" d="M754.5,274.3c0,35.1,0,69.4,0,104.1c1.8,0.1,3.4,0.2,5,0.2c11.5,0,23,0.3,34.5-0.1c5.6-0.2,10.2,0.8,13.2,5.7
		c1.3,2.1,2.7,4.6,2.8,6.9c0.2,22.7,0.1,45.3,0.1,68c0,6.4-6.1,12.4-12.6,12.4c-75,0-150,0-225,0c-7.2,0-13-5.8-13-13
		c0-22.5,0-45,0-67.5c0-5.8,6.5-12.3,12.3-12.3c16,0,32,0,48.4,0c0-93.6,0-187,0-281.2c-1.5,0-3.3,0-5,0c-14.7,0-29.3,0-44,0
		c-5.9,0-11.7-5.7-11.7-11.4c0-22.8,0-45.7,0-68.5c0-5.9,6-12.1,11.9-12.1c91.2,0,182.3-0.2,273.5,0.1C867.6,5.7,890,9,911.4,17.3
		c22.8,8.9,40.8,23.6,54.6,44c8.5,12.6,15,26,19.4,40.4c4.9,16,6.3,32.6,4.7,49.1c-1.2,11.7-4.1,23.4-7.4,34.7
		c-3.4,11.4-9.9,21.5-17.4,30.8c-13.1,16.3-29.5,28.3-47.8,38.1c-0.4,0.2-0.7,0.6-1.4,1.1c4.3,8,8.6,15.9,12.8,23.9
		c11.6,21.7,23.2,43.3,34.8,65c5.6,10.5,11,21.1,16.9,31.4c0.9,1.5,3.8,2.6,5.8,2.6c14.8,0.2,29.7,0.1,44.5,0.1
		c6,0,13.4,7.3,13.4,13.2c0,22.2,0,44.3,0,66.5c0,6-6.9,13.1-12.8,13.1c-42.7,0-85.3,0-128,0c-6,0-10.8-2.7-13.6-8.2
		c-7.3-14.3-14.4-28.6-21.7-42.8c-13.4-25.8-26.9-51.5-40.2-77.4c-7.4-14.2-14.5-28.6-21.8-42.8c-4-7.8-8.1-15.5-12.3-23.2
		c-0.6-1.1-2-2.5-3.1-2.5C778.9,274.3,766.9,274.3,754.5,274.3z M575.3,455.1c1.9,0.1,3.1,0.2,4.2,0.2c70,0,140,0,210,0.1
		c4.1,0,5.1-1.5,5.1-5.2c-0.2-16.5-0.3-33-0.1-49.5c0.1-4.8-1.6-6-6-5.9c-12.1,0.2-24.3,0.3-36.4,0c-8.9-0.2-13.5-4.9-14.1-13.8
		c-0.3-4.1,0-8.3,0-12.4c-0.1-32.7-0.3-65.3-0.4-98c0-5.1,7.3-13,12.1-13.1c14.7-0.1,29.4-0.6,44,0.3c4.2,0.3,9.6,3.7,12,7.4
		c5.7,8.8,10,18.6,14.9,28c7.7,14.8,15.3,29.5,22.6,43.5c5.1-4.9,9.5-10.6,15.2-14.3c9.6-6.4,11.7-14.2,8-24.6
		c-1.2-3.5-3-5.6-6.4-6.8c-7.8-2.7-15.5-5.8-23.4-8.3c-3.5-1.1-4.4-3-4-6.2c0.9-7.7,2.2-15.4,2.7-23.1c0.3-4.2,2.5-5.3,5.9-5.9
		c7.5-1.3,14.9-3,22.5-3.8c5.5-0.6,8.8-3,10.3-8.2c0.5-1.6,0.8-3.3,1.7-4.7c2.7-4,1-7-1.5-10.2c-4.7-5.8-8.9-12-13.8-17.7
		c-3.2-3.8-2.8-6.7,0.4-10.3c4.5-5.1,9-10.3,12.7-15.9c3.2-4.8,6.4-4.5,11-2.5c7.4,3.3,14.9,6.3,22.5,9.2c6.8,2.5,16.9-4.7,16.5-12
		c-0.4-8.6-1.2-17.2-2-25.7c-0.3-3.4,1.1-5.1,4.3-6.2c8.2-2.6,16.2-5.7,24.5-8.1c1.6-0.5,4.6,0.7,5.7,2.1c3.9,4.9,7.3,10.3,11,15.4
		c1.9,2.7,3.9,5.4,6.4,8.9c2.2-15.6,2-30-1.1-44.1c-4-18.3-12.4-34.6-23.7-49.5c-9.1-12-20.2-21.4-33.7-27.9
		c-21.6-10.5-44.9-14.4-68.5-14.5c-88.3-0.4-176.6-0.1-264.9-0.1c-1.8,0-3.6,0-5.3,0c0,13.1,0,25.6,0,38.3c5-0.3,9.1-0.3,11.4-5.6
		c3.1-7.1,7.2-13.8,10.7-20.7c2-3.9,4.8-5.1,8.9-4c7.8,2,15.7,3.7,23.5,6c1.7,0.5,4,2.7,4.2,4.4c1,9.7,1.4,19.4,2.1,29.2
		c0.3,5,9.8,10.6,14.3,8.2c7.9-4.2,15.8-8.4,23.4-13c3.5-2.2,5.9-2.1,8.7,0.9c5.7,6.1,11.4,12.1,17.3,17.9c2.8,2.8,2.8,5.2,0.9,8.4
		c-4.3,7.1-8.4,14.3-12.6,21.4c-3.9,6.5,1,16.5,8.5,17c8.6,0.6,17.3,0.8,25.9,1.6c2,0.2,5.2,1.6,5.5,3c2.1,9.7,3.7,19.5,5.1,29.3
		c0.2,1.2-1.4,3.3-2.7,4c-5.3,3-10.7,5.9-16.4,8.4c-6.5,2.8-11.6,5.7-11.4,14.5c0.1,4.2,0.5,6.7,3.8,9c7.3,5.2,14.6,10.5,21.5,16.1
		c1.4,1.1,2.6,4.2,2.1,5.7c-2.6,8.2-5.6,16.3-8.9,24.2c-0.7,1.7-3.6,3.6-5.4,3.5c-6.8-0.2-13.7-0.5-20.2-2c-8.1-1.9-13,0.7-17.3,7.6
		c-2.7,4.3-3.2,7.8-1.1,12.4c3.1,6.9,5.5,14.2,8.3,21.2c1.3,3.4,1.1,6.1-2,8.3c-6,4.5-12,8.9-17.8,13.6c-3.3,2.7-5.9,2.6-9.1-0.2
		c-6.1-5.3-12.4-10.2-19.6-16c0,3,0,4.8,0,6.5c-0.2,27.5-0.3,55-0.5,82.5c0,5.9-6.3,12.2-12.3,12.2c-14.8,0-29.7,0.1-44.5-0.1
		c-3.8,0-4.9,1.2-4.8,4.9c0.2,11.8,0.1,23.7,0.1,35.5C575.3,442,575.3,448.3,575.3,455.1z M857.8,365.1c1.9,4,3.7,7.9,5.7,11.7
		c12.7,24.5,25.4,49,37.9,73.6c1.8,3.6,3.8,5.1,7.9,5c37.8-0.1,75.6-0.1,113.4-0.1c1.6,0,3.2,0,4.8,0c0-20.3,0-39.8,0-59.7
		c-4.7,0.7-7.5,2.4-8.4,7.2c-1.5,8.4-3.9,16.7-5.3,25.2c-0.7,3.8-2.8,5.2-5.9,5.5c-7.6,0.6-15.3,0.8-22.9,1.2
		c-3.5,0.2-5.1-1.5-6-4.7c-1.4-4.8-3.9-9.3-4.5-14.2c-1.6-12.6-9.3-17.3-20.9-17.4c-2.3,0-5.3,0.6-6.9,2.1
		c-6.3,5.9-12.3,12.1-18.3,18.4c-2.4,2.5-4.6,3.1-7.8,1.1c-6.2-3.8-12.6-7.3-19.1-10.6c-3.3-1.8-4.4-4.1-3.3-7.7
		c1.6-5.5,2.9-11.2,4.7-16.7c2.7-8.3,3.2-15.8-5.4-21.1c-1.1-0.7-2-1.8-2.8-2.8c-2.1-2.9-4.6-3.2-7.9-2.4
		C877.5,361,867.9,362.9,857.8,365.1z M637.9,113.2c0,46.1,0,91.8,0,138C685.1,213,678.6,143.3,637.9,113.2z M899.7,259.2
		c-12.5,46.6,16,93.8,57.1,106C937.6,329.6,918.8,294.6,899.7,259.2z M959.2,196.9c-19.1,3-46.8,26.8-52.1,44.4
		C928.1,230.7,946.6,217.5,959.2,196.9z"/>
	<path class="st0" d="M319.9,437.8c9.5,2.8,18.1,5.4,26.8,7.9c1.7,0.5,3.5,1.3,5.2,1.4c2.7,0.2,7.4,0.6,7.8-0.3
		c1.2-3.1,1.8-7.3,0.7-10.3c-3.7-9.8-8.5-19.1-12.3-28.8c-2-5-2.7-10.5-4.2-16.6c7.1-1.1,13.8-3.1,20.5-3.1c6.1,0,10.3-2.5,14.4-6.2
		c1.6-1.4,3.2-3,5-4c7.8-4.3,10.8-10.5,8.9-19.3c-0.6-2.9-1.2-5.9-2.3-8.6c-1.4-3.3-0.9-6.1,1.2-8.7c0.4-0.5,1.2-1.2,1-1.6
		c-1.7-6.1,3.1-9.4,5.5-13.9c1.9-3.6,1-8.7,1.2-13.1c0.1-2.4-0.4-4.9-0.6-7.1c8.6-2.2,16.6-4.2,25.8-6.6
		c-7.3-17.6-14-33.9-20.9-50.7c2.7-0.9,5.1-1.8,7.5-2.7c5.6-2.1,7.4-6.4,5.1-11.9c-5.7-13.8-11.4-27.5-17.1-41.3
		c-1.6-3.9-1.2-7.1,1.8-10.4c15.9-17.2,31.5-34.6,47.3-52c1.7-1.9,3.3-4,5.9-7.2c0,81.6,0,161.7,0,242.5c8.3,0,16,0,24.1,0
		c0,31,0,61.4,0,92.3c-2.2,0.1-4.3,0.3-6.4,0.3c-49-0.2-97.9-0.5-146.9-0.6c-3.7,0-5.5-0.8-5.2-4.9
		C320.2,447.7,319.9,443,319.9,437.8z"/>
	<path class="st0" d="M406.8,291.6c-8.6,0.8-16.5,1.5-24.4,2.4c-2.7,0.3-5.5,1.2-8,2.3c-5.2,2.3-5.5,5.6-1.2,9.4
		c3.7,3.3,7.2,6.8,11.7,11.1c-5.4,0.6-9.5,1.3-13.7,1.5c-5.8,0.2-11.7,0.1-17.5,0c-6.1,0-7.3,1.4-6.1,7.4c9.3,1.6,18.4,3.3,27.5,4.9
		c0,0.5-0.1,1-0.1,1.4c-2.7,1.8-5.7,3.4-8.2,5.5c-1.4,1.2-2.7,3-3.2,4.8c-0.8,3,0.7,5.3,4,4.2c4.1-1.4,6.1,0.7,7.3,3.9
		c1.6,4.3,2.7,8.7,4.1,13.2c-1.3,0.7-2.2,0.9-2.7,1.5c-8.7,9.9-19.3,6.4-29.6,4.2c-5.6-1.2-11.1-2.6-16.6-4.8c4.8,0,9.6,0,14.8,0
		c0-32.9,0-65.3,0-97.8c-4.6-1.4-9.3-2.7-13.5-4c-14.6,21.1-29,41.9-43.5,62.5c-1,1.4-3.4,2.3-5.2,2.3c-14.5,0.2-29,0.1-43.5,0.1
		c-6.6,0-9.4-4.8-6-10.6c2.7-4.5,6.1-8.6,9.1-12.9c2.5-3.5,4-7.1,1.9-13c-4,3.4-7.6,6.3-11.1,9.3c-3.7,3.3-7.1,7-11,10
		c-2.8,2.1-5.8,1.5-8.3-1.5c-7.3-8.6-14.7-17.1-22.2-25.5c-3.9-4.3-5.5-8.7-4.6-14.8c1.2-7.5,0.6-15.2,1.2-22.8
		c0.1-1.8,1.6-4.4,3.2-5.2c6.6-3.4,13.5-6.1,20.2-9.3c3.8-1.8,6.7-0.3,9.3,2.2c11.8,11.6,22.9,23.6,27.8,40c0.3,1.1,2.5,2.7,3.3,2.5
		c7.1-2,14.2-4.4,21.2-6.8c4-1.3,3.9-4.2,2.1-7.1c-2.9-4.5-6.2-8.6-9-13.1c-2.3-3.6-4.6-7.3-6.3-11.2c-0.5-1.2,0.7-3.9,1.9-5
		c10.9-9.6,21.9-19.1,33.1-28.5c5.1-4.3,5.5-6.1,2-12c-3.5-5.8-6.9-11.6-10.1-17.5c-1.3-2.5-0.4-4.3,2.6-5.1
		c13.6-3.5,27.2-6.8,40.6-10.7c9.3-2.7,16.9,0.7,24.5,5.1c6.3,3.6,12.6,7.3,19,10.9c4.5,2.6,7.1,6,9,11.3
		c4.8,14.1,11,27.7,16.5,41.5c1.1,2.9,1.9,5.9,2.9,9.1c-1.2,0.2-1.9,0.3-2.5,0.5c-7.8,1.6-9.3,3.5-7.1,10.9
		c3.9,12.6,8.3,25,12.5,37.6C405.4,287.6,405.9,289.1,406.8,291.6z M362.6,238c-0.1,0.5-0.3,1-0.4,1.6c-5.8,0.3-11.5,0.5-17.3,0.7
		c-3,0.1-6-0.2-9,0.2c-1.2,0.2-2.7,1.4-3.2,2.5c-0.3,0.6,1.1,2.5,2.1,2.9c2.9,1.4,6.1,3.4,9.1,3.4c10.7-0.2,18.7,3.3,22.4,13.9
		c1.5,4.3,5.2,3.3,8,2.8c1.7-0.3,3.7-2.5,4.3-4.2c1.1-3.5,2.3-6.4,5.4-8.9c2.3-1.8,3.9-5.4,4.6-8.4c2.3-10.2-8.7-24.1-19.1-24
		c-12.4,0-24.9,0.2-37.3,0.9c-6.7,0.3-13.6,1.3-18.1,7.1c-0.9,1.2-0.6,3.3-0.9,5c1.6-0.1,3.3,0,4.8-0.5c1.3-0.5,2.3-1.9,3.5-2.7
		c3.5-2.3,6.7-3.8,9,1.7c0.5,1.1,3,2,4.5,2c4.8,0,9.6-0.8,14.4-0.5C354.2,233.6,359.4,233.7,362.6,238z M218.1,283.6
		c0.5-0.4,1-0.7,1.5-1.1c3.7,2.4,7.4,5.1,11.3,7.2c1.7,0.9,3.9,0.7,5.9,1c-0.4-2.1,0-5-1.2-6.1c-4.9-4.4-4.4-9.2-2.3-14.5
		c1-2.5,1.5-5.1,2.7-7.4c1.9-3.6,0.8-6.7-2.1-8.5c-7-4.3-14.3-8.2-21.6-11.9c-1.2-0.6-3.9-0.6-4.6,0.2c-3.6,4.1-6.8,8.5-9.9,12.9
		c-0.5,0.7,0.2,2.8,0.9,3.3c0.8,0.6,2.7,0.5,3.6-0.1c1.6-1.1,2.6-3.2,4.3-4.1c1.8-1,4.5-2.1,6-1.4c1.8,0.8,4.1,3.7,3.8,5.3
		c-0.8,4.8-2.7,9.4-4.4,14c-1,2.6-3.9,5.7-3.2,7.6c2.5,7.2,5.8,14.3,9.7,20.9c1.2,2,7,3.9,7.9,3c3.1-3,0-6.2-1.8-9.1
		C222.3,291.1,220.2,287.3,218.1,283.6z"/>
	<path class="st0" d="M110.2,359.7c2.3,7.2,4.4,13.8,6.3,20.4c0.9,3.1,2.6,4,5.5,3c11.2-3.8,21.9-8.5,31.4-16
		c-4.6-8.1-13.2-7.7-20.2-10.9c7.7,0,15.4,0,23.3,0c0.2,2.5,0.5,5.1,0.8,7.7c1.8,0.3,3.4,0.6,4.5,0.8c-1.1,6-2.1,11.8-3.1,17.3
		c10.8,5.9,21.1,7.5,23.2,4.3c0,23.2,0,46.6,0,70.4c-52.5,0-104.8,0-157.3,0c-0.1-1.6-0.3-3.1-0.3-4.5c0-14.3,0.1-28.7-0.1-43
		c-0.1-3.7,1.2-5.2,4.6-6.2c16.2-4.7,32.3-9.5,48.3-14.5c2.5-0.8,4.9-2.4,6.8-4.2c7.7-7.3,15.2-14.9,22.8-22.4
		C107.6,361.1,108.7,360.7,110.2,359.7z"/>
	<path class="st0" d="M48.5,166.1c0-15.6,0-31.3,0-47.5c-8,0-15.7,0-23.8,0c0-31.6,0-62.7,0-94.2c2.1-0.1,4-0.3,6-0.3
		c25.8,0,51.6-0.1,77.5,0c14,0.1,27.9,0.4,41.9,0.8c1.4,0,3.4,0.8,4.1,1.9c5.3,9,10.3,18.1,15.5,27.5
		c-49.1,27.7-88.1,66.3-119.8,112.5C49.4,166.7,48.9,166.4,48.5,166.1z"/>
	<path class="st0" d="M48.5,223.6c0-8-0.2-15.5,0.1-22.9c0.1-2.2,0.9-4.6,2.2-6.4c6.8-10.2,13.4-20.4,20.8-30.2
		c7.2-9.6,14.8-19.1,23-28c7.1-7.6,15-14.6,23-21.2c14.4-11.9,29.1-23.4,43.8-34.9c4-3.1,8.6-5.6,12.9-8.4c2.7-1.8,4.6-1.8,6.2,1.6
		c2,4.3,4.3,8.6,7,12.6c2.1,3.1,1,4.5-1.6,6.2c-8.9,5.8-17.9,11.4-26.3,17.9c-10.7,8.3-21.2,16.9-31.2,26
		c-9.9,9-19.4,18.6-28.4,28.5c-9.8,10.7-18.8,22.2-28.3,33.2C64.1,206.2,56.5,214.6,48.5,223.6z"/>
	<path class="st0" d="M349.3,25.2c42.8,0,85.7,0,128.9,0c0.2,1.3,0.4,2.5,0.4,3.8c0,13,0.1,26-0.1,39c0,1.5-1.5,3-2.3,4.5
		c-1.3-1.3-3.3-2.5-3.7-4.1c-1.9-7.5-3.3-15-4.8-22.5c-0.5-2.7-1.9-3.7-4.8-3.6c-34.3,0.7-67.6-5.9-100.7-14.1
		c-4.3-1.1-8.7-1.3-13.1-2C349.1,25.9,349.2,25.6,349.3,25.2z"/>
	<path class="st0" d="M48.9,283.7c12.2,8.2,23.8,16,36.6,24.6c-10.4,2.9-19.4,5.3-28.3,8c-1.7,0.5-3,2.2-5.5,4.2
		c16.7,4.8,29.9,12.4,43.6,21.3c-17,5.7-34.8,7-46.4,23.3C48.9,337.1,48.9,311,48.9,283.7z"/>
	<path class="st0" d="M127.8,316.2c2.2-8.4,3.6-17.1,6.8-25c6.6-16.6,15.4-32.4,27-46c14.1-16.6,29.4-32.1,48.7-42.9
		c1.3-0.7,3.6,0.5,5.4,1c0.5,0.1,0.8,1,1,1.6c0.6,1.5,1.2,3,1.8,4.7c-19.1,9.5-34.3,23.9-50.6,36.8c-2.1,1.6-4.2,3.2-6.1,5.1
		c-0.7,0.7-1.4,2.5-1,2.9c2.6,3,0.3,5.3-0.9,7.7c-7.3,14.3-14.5,28.6-22.1,42.8c-2.3,4.3-5.4,8.1-8.1,12.2
		C129,316.7,128.4,316.4,127.8,316.2z"/>
	<path class="st0" d="M331.4,56.4c3.2-5.7,5.7-10.6,8.7-15.1c0.8-1.2,3.6-1.9,5.2-1.6c23.9,3.6,47.7,7.4,71.6,11.3
		c0.9,0.1,1.8,0.8,2.7,1.2c-3.6,3.5-22.7,6.6-43.3,6.4C361.8,58.4,347.2,57.2,331.4,56.4z"/>
	<path class="st0" d="M478.3,119.4c-7,0-13.4,0-21.6,0c7.4-8.2,14-15.6,21.6-24C478.3,104,478.3,111.5,478.3,119.4z"/>
	<path class="st0" d="M47.1,365.7c-7.2,5.8-14.4,11.7-22.4,18.1c0-6.9,0-12.7,0-19c7.3,0,14.5,0,21.7,0
		C46.7,365.1,46.9,365.4,47.1,365.7z"/>
	<path class="st0" d="M72,271c-8.1-4.7-15.5-8.4-22.1-13.1c-1.8-1.3-1.3-5.9-1.2-9.3C56.8,255.4,68.6,257.8,72,271z"/>
	<path class="st0" d="M156,322.4c3.9,10-2.3,14.4-9.5,18.5C148.1,334.1,152.3,328.5,156,322.4z"/>
	<path class="st0" d="M575.3,455.1c0-6.8,0-13.2,0-19.5c0-11.8,0.1-23.7-0.1-35.5c-0.1-3.7,1-4.9,4.8-4.9
		c14.8,0.2,29.7,0.1,44.5,0.1c5.9,0,12.2-6.3,12.3-12.2c0.2-27.5,0.3-55,0.5-82.5c0-1.8,0-3.5,0-6.5c7.2,5.8,13.6,10.7,19.6,16
		c3.2,2.8,5.8,2.9,9.1,0.2c5.8-4.7,11.8-9.1,17.8-13.6c3.1-2.3,3.3-5,2-8.3c-2.8-7-5.3-14.3-8.3-21.2c-2-4.6-1.5-8.1,1.1-12.4
		c4.2-6.8,9.2-9.4,17.3-7.6c6.6,1.5,13.5,1.8,20.2,2c1.8,0.1,4.7-1.8,5.4-3.5c3.3-7.9,6.3-16,8.9-24.2c0.5-1.6-0.7-4.6-2.1-5.7
		c-7-5.6-14.2-10.9-21.5-16.1c-3.3-2.4-3.7-4.8-3.8-9c-0.2-8.9,4.9-11.7,11.4-14.5c5.6-2.4,11-5.4,16.4-8.4c1.3-0.7,2.9-2.8,2.7-4
		c-1.4-9.8-3-19.6-5.1-29.3c-0.3-1.4-3.5-2.8-5.5-3c-8.6-0.8-17.2-1-25.9-1.6c-7.5-0.5-12.4-10.5-8.5-17c4.2-7.1,8.3-14.3,12.6-21.4
		c1.9-3.1,1.9-5.6-0.9-8.4c-5.9-5.8-11.6-11.9-17.3-17.9c-2.7-2.9-5.1-3-8.7-0.9c-7.6,4.7-15.5,8.8-23.4,13
		c-4.4,2.4-13.9-3.2-14.3-8.2c-0.6-9.7-1.1-19.5-2.1-29.2c-0.2-1.6-2.5-3.9-4.2-4.4c-7.7-2.3-15.7-4-23.5-6c-4.1-1.1-7,0.1-8.9,4
		c-3.5,7-7.6,13.6-10.7,20.7c-2.3,5.3-6.4,5.3-11.4,5.6c0-12.6,0-25.1,0-38.3c1.8,0,3.6,0,5.3,0c88.3,0,176.6-0.2,264.9,0.1
		c23.7,0.1,46.9,4,68.5,14.5c13.4,6.5,24.6,15.9,33.7,27.9c11.3,14.9,19.7,31.2,23.7,49.5c3.1,14.1,3.3,28.5,1.1,44.1
		c-2.5-3.5-4.5-6.2-6.4-8.9c-3.6-5.2-7-10.5-11-15.4c-1.1-1.4-4.1-2.5-5.7-2.1c-8.2,2.4-16.3,5.5-24.5,8.1c-3.2,1-4.6,2.7-4.3,6.2
		c0.8,8.6,1.6,17.1,2,25.7c0.4,7.3-9.7,14.6-16.5,12c-7.6-2.8-15.2-5.8-22.5-9.2c-4.6-2.1-7.8-2.3-11,2.5
		c-3.8,5.6-8.2,10.8-12.7,15.9c-3.1,3.5-3.6,6.4-0.4,10.3c4.8,5.7,9.1,11.9,13.8,17.7c2.5,3.2,4.3,6.2,1.5,10.2
		c-0.9,1.3-1.2,3.1-1.7,4.7c-1.5,5.2-4.9,7.6-10.3,8.2c-7.5,0.9-15,2.6-22.5,3.8c-3.4,0.6-5.6,1.7-5.9,5.9
		c-0.5,7.7-1.7,15.4-2.7,23.1c-0.4,3.2,0.6,5.1,4,6.2c7.9,2.5,15.6,5.6,23.4,8.3c3.5,1.2,5.2,3.3,6.4,6.8c3.7,10.4,1.6,18.2-8,24.6
		c-5.7,3.8-10.1,9.4-15.2,14.3c-7.3-14-14.9-28.8-22.6-43.5c-4.9-9.4-9.1-19.2-14.9-28c-2.4-3.6-7.8-7.1-12-7.4
		c-14.6-0.9-29.3-0.4-44-0.3c-4.8,0-12.1,8-12.1,13.1c0.1,32.7,0.3,65.3,0.4,98c0,4.1-0.3,8.3,0,12.4c0.6,8.9,5.2,13.6,14.1,13.8
		c12.1,0.3,24.3,0.2,36.4,0c4.4-0.1,6.1,1.2,6,5.9c-0.3,16.5-0.1,33,0.1,49.5c0,3.7-1,5.2-5.1,5.2c-70-0.1-140-0.1-210-0.1
		C578.4,455.3,577.2,455.2,575.3,455.1z M737.6,142c0,16,0,32,0,48c0,6,7,13,13,13.1c12,0,24,0.1,36,0c18-0.2,35.5-2.5,52-10.5
		c10.9-5.3,19.2-13,24.5-24.2c5.4-11.2,6.4-22.9,5.4-34.8c-0.9-10.1-4.1-19.7-10.5-27.8c-13-16.5-31.3-22.8-51.3-24
		c-18.8-1.1-37.6-0.4-56.5-0.5c-5.6,0-12.6,7.1-12.6,12.8C737.5,110,737.6,126,737.6,142z"/>
	<path class="st0" d="M857.8,365.1c10.1-2.2,19.6-4.1,29.1-6.4c3.3-0.8,5.8-0.5,7.9,2.4c0.8,1.1,1.7,2.1,2.8,2.8
		c8.6,5.3,8.2,12.8,5.4,21.1c-1.8,5.5-3,11.1-4.7,16.7c-1.1,3.6,0,5.9,3.3,7.7c6.4,3.4,12.9,6.8,19.1,10.6c3.3,2,5.4,1.4,7.8-1.1
		c6-6.2,11.9-12.5,18.3-18.4c1.6-1.5,4.6-2.1,6.9-2.1c11.6,0.1,19.2,4.9,20.9,17.4c0.6,4.8,3.1,9.4,4.5,14.2c0.9,3.2,2.5,4.9,6,4.7
		c7.6-0.4,15.3-0.6,22.9-1.2c3.1-0.2,5.2-1.7,5.9-5.5c1.5-8.4,3.8-16.7,5.3-25.2c0.9-4.8,3.7-6.6,8.4-7.2c0,19.9,0,39.5,0,59.7
		c-1.6,0-3.2,0-4.8,0c-37.8,0-75.6-0.1-113.4,0.1c-4.1,0-6.1-1.4-7.9-5c-12.5-24.6-25.3-49-37.9-73.6
		C861.5,373,859.8,369.1,857.8,365.1z"/>
	<path class="st0" d="M637.9,113.2c40.7,30.1,47.3,99.8,0,138C637.9,205,637.9,159.3,637.9,113.2z"/>
	<path class="st0" d="M899.7,259.2c19.1,35.4,37.9,70.4,57.1,106C915.8,353.1,887.2,305.8,899.7,259.2z"/>
	<path class="st0" d="M959.2,196.9c-12.6,20.6-31.1,33.8-52.1,44.4C912.4,223.7,940.1,200,959.2,196.9z"/>
	<path class="st1" d="M362.6,238c-3.3-4.3-8.4-4.4-13.2-4.6c-4.8-0.2-9.6,0.6-14.4,0.5c-1.6,0-4.1-0.9-4.5-2c-2.3-5.5-5.6-3.9-9-1.7
		c-1.2,0.8-2.2,2.2-3.5,2.7c-1.4,0.5-3.2,0.4-4.8,0.5c0.3-1.7-0.1-3.8,0.9-5c4.6-5.9,11.5-6.8,18.1-7.1c12.4-0.6,24.9-0.9,37.3-0.9
		c10.4,0,21.5,13.8,19.1,24c-0.7,3-2.3,6.6-4.6,8.4c-3.2,2.5-4.3,5.4-5.4,8.9c-0.5,1.8-2.6,4-4.3,4.2c-2.8,0.5-6.4,1.5-8-2.8
		c-3.8-10.6-11.7-14.1-22.4-13.9c-3,0.1-6.2-2-9.1-3.4c-1-0.5-2.3-2.4-2.1-2.9c0.5-1.1,2-2.4,3.2-2.5c2.9-0.4,6-0.1,9-0.2
		c5.8-0.2,11.5-0.5,17.3-0.7C362.4,239,362.5,238.5,362.6,238z"/>
	<path class="st1" d="M218.1,283.6c2.1,3.7,4.3,7.5,6.5,11.2c1.7,2.9,4.9,6.1,1.8,9.1c-0.9,0.9-6.7-1-7.9-3
		c-3.9-6.6-7.1-13.7-9.7-20.9c-0.7-1.9,2.2-5,3.2-7.6c1.7-4.6,3.6-9.2,4.4-14c0.3-1.6-2-4.5-3.8-5.3c-1.5-0.7-4.2,0.4-6,1.4
		c-1.7,0.9-2.7,3-4.3,4.1c-0.9,0.6-2.8,0.7-3.6,0.1c-0.8-0.5-1.4-2.7-0.9-3.3c3.1-4.5,6.3-8.8,9.9-12.9c0.7-0.8,3.4-0.8,4.6-0.2
		c7.3,3.8,14.6,7.6,21.6,11.9c3,1.8,4.1,4.9,2.1,8.5c-1.2,2.3-1.8,5-2.7,7.4c-2,5.3-2.6,10.1,2.3,14.5c1.2,1.1,0.9,4,1.2,6.1
		c-2-0.3-4.2-0.1-5.9-1c-3.9-2.1-7.5-4.8-11.3-7.2C219.1,282.9,218.6,283.3,218.1,283.6z"/>
	<path class="st0" d="M737.6,142c0-16,0-32,0-48c0-5.7,7-12.8,12.6-12.8c18.8,0.1,37.7-0.6,56.5,0.5c19.9,1.2,38.2,7.4,51.3,24
		c6.4,8.1,9.6,17.8,10.5,27.8c1,11.9,0,23.6-5.4,34.8c-5.4,11.1-13.6,18.9-24.5,24.2c-16.4,8-34,10.3-52,10.5c-12,0.1-24,0-36,0
		c-6,0-13-7.1-13-13.1C737.5,174,737.6,158,737.6,142z M754.5,186.6c9.2,0,18,0,26.8,0c12.9,0,25.8-0.2,38.3-3.9
		c8.4-2.4,16.5-5.6,22.6-12.3c8.9-9.7,10.3-21.3,9.8-34c-0.7-19.2-13.3-30.2-28.2-35.1c-12.3-4-25.1-3.9-37.8-3.9
		c-10.4,0-20.9,0-31.5,0C754.5,127.3,754.5,156.6,754.5,186.6z"/>
	<path class="st1" d="M754.5,186.6c0-30,0-59.3,0-89.1c10.6,0,21.1,0,31.5,0c12.7,0,25.5-0.1,37.8,3.9c14.9,4.9,27.5,15.9,28.2,35.1
		c0.5,12.7-0.9,24.3-9.8,34c-6.1,6.7-14.2,9.8-22.6,12.3c-12.5,3.6-25.4,3.9-38.3,3.9C772.5,186.6,763.7,186.6,754.5,186.6z"/>
</g>
</svg>
