<?xml version="1.0" encoding="utf-8"?>
<!-- Generator: Adobe Illustrator 20.1.0, SVG Export Plug-In . SVG Version: 6.00 Build 0)  -->
<svg version="1.1" id="Layer_1" xmlns="http://www.w3.org/2000/svg" xmlns:xlink="http://www.w3.org/1999/xlink" x="0px" y="0px"
	 viewBox="0 0 399.7 400.9" style="enable-background:new 0 0 399.7 400.9;" xml:space="preserve">
<style type="text/css">
	.st0{fill:#292867;}
	.st1{fill:#2C2D6F;}
</style>
<g>
	<path class="st0" d="M163.4,136.9c-8.8-8.1-5.4-13.4,4.3-15.7c5.3-1.2,11.8,0.5,12-7.7c0.2-7.8-5.2-9-11.3-8.1
		c-5.6,0.8-7.3-2.1-8.8-6.8c-1.9-6.1,0.6-8.9,5.7-11.5c4.5-2.3,8.7-5.9,4.9-11.7c-3.2-4.8-8.1-5.6-12.7-1.8
		c-7.7,6.3-15.4,1.7-15.3-4.4c0-7.1-0.3-19.9,10.5-20.7c11.7-0.8,24-3.8,35.7,2.8c10.4,5.8,21.2,9.6,22.2,24.3
		c0.5,7,7.7,4.4,12.1,4.3c20.9-0.4,41.8-0.7,62.7-1.9c9.3-0.5,16.5,2,23.3,8.4c24.5,23.4,49,46.8,74,69.7c8.3,7.6,9.8,14.2-1,19.2
		c-10,4.7-16.7,12.3-22.5,20.9c-3.5,5.1-7.5,5.3-12.7,4c-3.8-0.9-4.5-3-4.8-6.5c-0.6-6,1.3-9.2,7.7-9.9c5.3-0.5,9.9-3.2,8.3-9.6
		c-1.3-5.1-5.7-5.9-10.4-4.5c-5.6,1.6-9.2-0.2-11.5-5.9c-2.3-5.7,0.9-7.8,4.9-10c4.7-2.6,8.3-6.3,5-11.9c-2.9-5-7.8-3.2-11.3-0.9
		c-5,3.2-8.3,3.5-12.5-1.5c-4.7-5.6-1-8.9,2-12.7c3-3.7,5.1-7.5,0.5-11.1c-4.2-3.4-8.1-1.7-11.1,2.1c-3.2,4.1-6.2,7.2-12.1,3.6
		c-5.8-3.5-5.1-7.9-3.1-12.7c1.9-4.6,2-9.1-2.5-11.3c-6.1-2.9-8.6,2.3-10.7,6.9c-1.9,4.2-3.8,7.5-9.5,6c-5-1.4-7.1-4.1-7-9.2
		c0.1-4.9,0.8-11.1-6.1-11.3c-7-0.2-8.9,5.3-8.7,11.5c0.1,4.5-2.3,6.6-6.5,7.3c-5.1,0.9-8.1-0.9-9.5-6c-1.3-4.7-3-10.6-9.2-9.5
		c-6,1.1-6.6,6.7-4.9,11.9c1.9,5.8-0.2,9.6-5.4,11.9c-5.2,2.3-7.9-1.4-10.4-5.1c-2.5-3.7-5.4-7.3-10.5-4.6c-3.6,2-4.8,5.5-3.2,9.5
		c2,5.1,9,8.9,1.8,15.8c-8.3,7.9-11.5-2.8-17.3-3.6c-1.8-0.2-3.7,0.1-5.5,0.1C169.8,131.8,166.6,134.3,163.4,136.9z"/>
	<path class="st0" d="M157.2,158.5c-0.9,2.7-1.9,5.4-2.8,8.1c0.8,1,1.5,2.1,2.3,3.1c4.6,4.1,14.8,1.2,14.4,11.3
		c-0.4,8.9-7.6,7.9-13.5,9c-4,0.7-6.9,3.6-6.5,7.6c0.3,3,2.9,5.4,6.3,5.8c5.7,0.8,12.6-1.4,14.1,7.8c1.3,8.4-5.2,8.3-9.9,10.6
		c-3.7,1.8-5.7,4.9-4.1,9c1.5,3.9,4.7,5.4,9,4.2c4.9-1.3,9.5-6,14.2,1.6c4.4,7.1-0.1,9.8-4.2,13.5c-2.8,2.6-5.2,5.7-2.4,9.6
		c3.1,4.4,7.2,4,11.3,1.4c3.9-2.4,6.9-7.5,12.6-2.6c5.4,4.7,4.8,9.1,1,14.4c-2.2,3.1-2.4,7.1,0.8,10.1c2.6,2.4,5.7,1.6,8.5,0.1
		c19.6-11,19.6-11,19.4,11.9c3.2,5.7,6.9,5.5,10.9,1c5.1-4.1-0.5-16.1,11.9-15.3c7.5,0.5,7.6,4.3,7,9.7c-0.6,3.5-0.3,6.8,3,9.1
		c1.3,2.8-0.5,3.5-2.6,4.1c-1.5,0.7-3,1.3-4.5,2c-2.7-0.1-5.4-0.2-8.1-0.3c-1.3-1.2-2.2-1.7-1.4,0.8c5.2,8,5.7,15.6-4.5,19
		c-9.6,3.2-12.7,12.9-20.7,17.7c-13.3,8.1-25.5,4.6-27.8-10.2c-2.1-13.7-6-24.8-18.7-33.4c-9.5-6.5-5.6-21.3-11.3-31.7
		c-4-7.2-6.7-13.8-14.9-16.7c-2.3-0.8-5-1.7-6.4-3.5c-14-18.1-25-38.6-42-54.6c0.2-1.7,0.3-3.3,0.5-5c7.5,0.8,15.5,2.1,14.8-9.5
		c-0.3-5.5,0.4-8.7,6.7-10.4c6.2-1.6,8.9,0.7,11.4,5.5c2.4,4.6,5.3,8.5,11.3,5c5.7-3.3,4.7-7.9,2.1-12.5c-5.8-10.3-2.4-15,8.9-14.9
		C153.6,154.1,154.2,156.9,157.2,158.5z"/>
	<path class="st0" d="M51.2,95.5c-0.8,3.4-0.7,6.5-1.6,6.8c-9.9,3.4-21.2,10.8-29.8,8.5c-19-5.1-18.4-13-6.6-29
		c11.3-15.3,28.6-16.9,43.2-24.5c4.2-2.2,6.9-1,8.9,2.9c1.9,3.6,5.4,7,1.2,11.5c-2.5,2.6-4.6,6.3-8.9,5.2c-5.9-1.6-12-10-17.4-1.1
		c-5.3,8.8,4.6,10.6,9.1,14.8C50.8,91.9,51,94.7,51.2,95.5z"/>
	<path class="st0" d="M204.2,204.7c12.1-1.3,24.2-0.8,22.7,12.4c-1.2,10.5-7.4,22.2-18.4,27.6c-4.3,2.1-22.5-24.7-21.6-32.2
		C188.5,199.2,200.1,208.3,204.2,204.7z"/>
	<path class="st0" d="M259.5,122c5.9,2.4,20.7-1.3,17.7,9.7c-2.8,10.3-5.5,26.3-21.8,28.2c-5.1,0.6-21.4-23.6-21-30
		C234.8,124.5,243.9,121.5,259.5,122z"/>
	<path class="st0" d="M305.2,181.3c-11.6,2.4-22.4,1.7-21.9-9.1c0.6-11.7,8.5-22.7,18.2-30.1c4.1-3.1,23.7,24.2,21.9,33
		C320.9,187.9,309.2,178.3,305.2,181.3z"/>
	<path class="st0" d="M252.8,265.1c-5.7-3.3-16.8,2.4-20.5-8.3c-2.1-6.1,16-28,21.9-28c6.8,0,22.6,20,22.1,28
		C275.9,262.1,267.9,265.1,252.8,265.1z"/>
	<path class="st0" d="M203.8,181c-4.8-2.8-16.6,6-16.4-8.5c0.1-9,17.6-32.3,22.8-31.7c3.1,0.4,19.9,26.8,18.8,30.6
		C225.4,185,214.2,180.8,203.8,181z"/>
	<path class="st0" d="M307.9,206.2c3.9,2.9,16.8-5.7,14.9,6.8c-2,12.9-8.1,30-21.4,31.4c-9.8,1.1-17.1-16.2-17.9-26.4
		C282.2,202.9,296.4,205.8,307.9,206.2z"/>
	<path class="st1" d="M271.6,193.7c-1.1,10.2-6.7,16.4-16.4,16.6c-9.2,0.2-14.6-6.2-15.1-15.1c-0.6-9.3,5.1-15.3,13.9-16.1
		C264.2,178.1,269.5,184.5,271.6,193.7z"/>
	<path class="st1" d="M113.1,67.6c-5.7,7.9-0.4,22.6-14.8,21.6C92.6,88.8,83.6,78.3,86,73.4C90.7,64,101.9,65.5,113.1,67.6z"/>
	<path class="st1" d="M77.5,125.2c6.9-0.7,12.7,0.8,11,8.1c-1.4,6-2.3,16.3-8.3,16.2c-8.6,0-15.3-8.9-15.9-17.1
		C63.8,125.1,73,126.8,77.5,125.2z"/>
	<path class="st0" d="M67.9,110.4c-4.7,0.2-9.7,0.8-7.9-6.1c1.8-6.9,2-17.5,9.4-17.9c7-0.4,14.1,8.2,14,16.1
		C83.3,112,73.2,108.1,67.9,110.4z"/>
	<path class="st0" d="M127.8,71.1c8.1,9.5,20.9,13,15.7,24.5c-2.1,4.5-14.6,7.7-19.7,2.2C115.7,89.2,127.4,82.4,127.8,71.1z"/>
	<path class="st1" d="M140.1,115c7.5-1.5,11.6-0.9,9.8,5.5c-2,7.1-1.2,17.9-10.9,18.2c-5.9,0.2-11.7-8.1-12.2-14.3
		C125.8,113.2,136.7,116.9,140.1,115z"/>
	<path class="st0" d="M127.8,152.7c-11.5,4-20.8,10.7-28.6,2.2c-2.7-3,0.5-14.5,6.9-17.1C119.2,132.4,118.5,147.4,127.8,152.7z"/>
	<path class="st1" d="M115.4,113.2c-1.2,6.3-4.5,10.6-11,10.1c-5.2-0.4-9.3-3.7-9.5-9.4c-0.1-6.3,3.6-10.7,9.9-10.8
		C111,102.9,114.5,107.2,115.4,113.2z"/>
	<path class="st1" d="M98.2,187.8c-0.2,1.7-0.3,3.3-0.5,5c-3.9-3.7-7.5-8-11.8-11.1c-3.4-2.4-8.3-3.3-6.1-9c1.3-3.5,3.7-7,7.9-5.7
		c4.1,1.3,10.1,1.2,10.1,8.1C97.7,179.4,98,183.6,98.2,187.8z"/>
	<path class="st1" d="M157.2,158.5c-3-1.6-3.6-4.4-3.7-7.5c13.9,6.2,14.6,5.9,17.9-6.6c0,0-0.3,0.3-0.3,0.3
		c3.6,2.3,12.6-0.6,8.7,9.1c-2.3,5.8-5.3,8.9-12.2,5.4C164.8,157.7,160.7,158.7,157.2,158.5z"/>
	<path class="st1" d="M278.5,292.8c-5.9,0.7-6.2-3.2-6.5-7c-0.5-6.7,3.9-8.1,9.4-8.6c5-0.4,6.8,2.9,6.8,6.6
		C288.1,290,282.5,290.9,278.5,292.8z"/>
	<path class="st1" d="M97.5,52.3c-0.7,5.9-5.4,5.8-9.4,6.7c-5.2,1.1-8.3-1.6-9-6.3c-1.2-7.9,5.6-4.1,8.6-4.9
		C91.7,46.6,96.4,46.6,97.5,52.3z"/>
	<path class="st1" d="M163.4,136.9c3.2-2.5,6.5-5.1,9.7-7.6c-3.2,4.8-2.2,10.2-2,15.5c0,0,0.3-0.3,0.2-0.3
		C168.7,141.9,166,139.4,163.4,136.9z"/>
	<path class="st1" d="M238.5,296.1c-4.1,4.6-7.8,4.7-10.9-1C231.2,295.4,234.9,295.8,238.5,296.1z"/>
	<path class="st1" d="M260.4,299.5c-3.3-2.3-3.6-5.5-3-9.1C258.4,293.4,259.4,296.5,260.4,299.5z"/>
	<path class="st1" d="M156.7,169.8c-0.8-1-1.5-2.1-2.3-3.1C155.1,167.7,155.9,168.7,156.7,169.8z"/>
	<path class="st1" d="M253.3,305.5c1.5-0.7,3-1.3,4.5-2C256.3,304.2,254.8,304.9,253.3,305.5z"/>
	<path class="st1" d="M243.8,306.1c-0.8-2.5,0.1-2,1.4-0.8c0,0-0.2,1.2-0.2,1.2L243.8,306.1z"/>
</g>
</svg>
