<svg version="1.1" id="Layer_1" xmlns="http://www.w3.org/2000/svg" xmlns:xlink="http://www.w3.org/1999/xlink" x="0px" y="0px"
	 viewBox="0 0 1056 480" style="enable-background:new 0 0 1056 480;" xml:space="preserve">
<style type="text/css">
	.st0{fill:transparent;}
	.st1{fill:#ffffff;}
</style>
<title>logo-white</title>
<path class="st0" d="M0,0h1056v480H0V0z M172.4,349v-57.5c1.1,1.1,2.2,2.3,3.2,3.5c10.3,14.6,20.5,29.2,30.9,43.7
	c1.1,1.5,3.2,3.1,4.9,3.1c27,0.2,54,0.2,81,0c1.6-0.2,3.1-1.1,4.1-2.5c8.8-12.8,17.3-25.7,26.1-38.5c1.8-2.6,4.1-4.8,7.1-8.4v56.7
	h-24.4v122.5h187.5V349h-23.4V134.5h24.4V9.6c-0.4-0.2-0.7-0.4-1.1-0.4c-50,0-100,0-150,0c-1.7,0.3-3.1,1.2-4,2.7
	c-14.3,24.8-28.5,49.6-42.6,74.5c-13.5,23.7-26.8,47.5-40.2,71.3c-1.5,2.6-3.1,5.2-5.4,8.8c-3.5-6.2-6.3-11.3-9.2-16.4
	c-15.8-27.7-31.6-55.4-47.4-83.1c-10.4-18.4-20.9-36.8-31.1-55.3c-1.6-3-3.5-3.6-6.6-3.6c-47.7,0.1-95.3,0.1-143,0.1
	c-1.6,0-3.2,0.1-4.8,0.2V134h24.4v214.4H8.4v123.2h187.3V349L172.4,349z M754,273.8c12.4,0,24.3-0.1,36.3,0.1c1.1,0,2.5,1.4,3.1,2.5
	c4.2,7.7,8.3,15.4,12.3,23.2c7.3,14.3,14.4,28.6,21.8,42.8c13.4,25.8,26.9,51.5,40.3,77.4c7.4,14.2,14.5,28.6,21.7,42.9
	c2.5,5.2,7.8,8.5,13.6,8.2c42.7,0.1,85.3,0.1,128,0c5.9,0,12.8-7.1,12.8-13.1c0-22.2,0-44.3,0-66.5c0-5.9-7.4-13.2-13.4-13.2
	c-14.8,0-29.7,0.1-44.5-0.1c-2,0-4.9-1.1-5.8-2.6c-5.9-10.3-11.3-20.9-16.9-31.4c-11.6-21.7-23.2-43.3-34.8-65
	c-4.3-8-8.5-15.9-12.8-23.9c0.4-0.4,0.9-0.8,1.4-1.1c18.2-9.8,34.7-21.8,47.8-38.1c7.5-9.4,14-19.4,17.4-30.8s6.3-23,7.4-34.7
	c1.7-16.5,0.1-33.2-4.7-49.1c-4.4-14.3-11-27.9-19.4-40.4c-13.7-20.4-31.7-35-54.6-44c-21.4-8.3-43.8-11.5-66.5-11.6
	C753.3,4.8,662.1,5,570.9,5c-5.9,0-11.9,6.1-11.9,12c0,22.8,0,45.7,0,68.5c0,5.7,5.8,11.4,11.7,11.4h49v281.2c-16.4,0-32.4,0-48.4,0
	c-5.7,0-12.3,6.6-12.3,12.3c0,22.5,0,45,0,67.5c0,7.2,5.8,13,13,13h225c6.5,0,12.6-6,12.6-12.4c0-22.7,0.1-45.3-0.1-68
	c0-2.3-1.5-4.8-2.8-6.9c-3-4.9-7.6-5.9-13.2-5.7c-11.5,0.4-23,0.1-34.5,0.1c-1.6,0-3.2-0.1-5-0.2L754,273.8z"/>
<path class="st1" d="M172.4,349h23.3v122.6H8.4V348.3h24.4V134H8.3V8.3c1.6-0.1,3.2-0.2,4.8-0.2c47.7,0,95.3,0,143-0.1
	c3.1,0,5,0.6,6.6,3.6c10.2,18.5,20.6,36.9,31.1,55.3c15.8,27.7,31.5,55.4,47.4,83.1c2.9,5.1,5.8,10.3,9.2,16.4
	c2.2-3.7,3.9-6.2,5.4-8.8c13.4-23.8,26.7-47.6,40.2-71.3c14.1-24.9,28.3-49.7,42.6-74.5c0.9-1.4,2.3-2.4,4-2.7c50-0.1,100-0.1,150,0
	c0.4,0.1,0.8,0.2,1.1,0.4v124.9h-24.4V349h23.4v122.6H305.3V349.2h24.4v-56.7c-3,3.5-5.4,5.8-7.1,8.4c-8.7,12.8-17.3,25.8-26.1,38.5
	c-1,1.3-2.4,2.2-4.1,2.5c-27,0.1-54,0.1-81,0c-1.7,0-3.8-1.6-4.9-3.1c-10.4-14.5-20.6-29.1-30.9-43.7c-1-1.2-2.1-2.4-3.2-3.5
	L172.4,349z M319.4,437.3c0,5.3,0.3,9.9-0.1,14.5c-0.3,4.2,1.4,4.9,5.2,5c49,0.1,97.9,0.3,146.9,0.6c2.1,0,4.2-0.2,6.4-0.3v-92.4
	h-24.1V122.2c-2.6,3.2-4.1,5.3-5.9,7.2c-15.7,17.4-31.4,34.8-47.3,52c-3,3.3-3.5,6.5-1.8,10.4c5.7,13.8,11.4,27.5,17.1,41.3
	c2.3,5.5,0.5,9.8-5.1,11.9c-2.4,0.9-4.9,1.7-7.5,2.7l20.9,50.7l-25.8,6.6c0.3,2.3,0.5,4.7,0.6,7.1c-0.1,4.4,0.7,9.5-1.1,13.1
	c-2.4,4.5-7.1,7.8-5.5,13.9c0.1,0.4-0.6,1.1-1,1.6c-2.1,2.4-2.6,5.8-1.3,8.7c1,2.8,1.8,5.7,2.3,8.6c1.9,8.8-1.1,14.9-8.9,19.3
	c-1.8,1.1-3.5,2.5-5,4c-4.1,3.8-8.3,6.2-14.4,6.2c-6.7,0-13.5,1.9-20.5,3.1c1.5,6.1,2.2,11.5,4.2,16.5c3.8,9.7,8.7,19,12.3,28.8
	c1.1,3,0.5,7.2-0.7,10.3c-0.4,1-5.1,0.5-7.8,0.4c-1.8-0.3-3.5-0.7-5.2-1.4L319.4,437.3z M406.2,291.1c-0.8-2.4-1.4-4-1.9-5.5
	c-4.2-12.5-8.6-25-12.5-37.6c-2.3-7.4-0.8-9.3,7-10.9l2.5-0.5c-1-3.2-1.8-6.2-2.9-9.1c-5.5-13.8-11.7-27.4-16.5-41.5
	c-1.8-5.3-4.4-8.8-9-11.3c-6.3-3.6-12.6-7.3-19-10.9c-7.6-4.4-15.2-7.8-24.5-5.1c-13.4,3.9-27.1,7.2-40.6,10.7
	c-3,0.8-3.9,2.6-2.6,5.1c3.2,5.9,6.6,11.8,10.1,17.5s3.1,7.7-2,12c-11.1,9.4-22.1,18.9-33,28.5c-1.2,1.1-2.4,3.8-1.9,5
	c1.7,3.9,3.8,7.7,6.3,11.2c2.9,4.4,6.2,8.6,9,13.1c1.9,2.9,1.9,5.8-2.1,7.1c-7,2.4-14.1,4.7-21.2,6.8c-0.8,0.2-2.9-1.4-3.3-2.5
	c-4.9-16.4-15.9-28.5-27.8-40c-2.6-2.5-5.4-4.1-9.3-2.2c-6.7,3.2-13.6,5.9-20.2,9.3c-1.8,1.2-2.9,3.1-3.2,5.2
	c-0.6,7.6,0,15.3-1.2,22.8c-1,6.1,0.7,10.4,4.6,14.8c7.6,8.4,14.9,16.9,22.2,25.5c2.5,2.9,5.5,3.6,8.3,1.5c3.9-3,7.3-6.7,11-10
	c3.4-3,7-5.9,11.1-9.3c2.1,5.9,0.6,9.5-1.9,13c-3.1,4.3-6.4,8.4-9.1,12.9c-3.5,5.8-0.6,10.6,6,10.6c14.5,0,29,0.1,43.5-0.1
	c2,0,3.8-0.9,5.2-2.4c14.5-20.6,28.9-41.4,43.5-62.5l13.5,4V364h-14.8c5.4,2.1,11,3.7,16.6,4.8c10.3,2.2,20.9,5.7,29.6-4.2
	c0.5-0.6,1.4-0.8,2.7-1.5c-1.4-4.5-2.5-9-4.1-13.2c-1.2-3.1-3.1-5.2-7.3-3.9c-3.3,1.1-4.8-1.1-4-4.2c0.6-1.9,1.7-3.5,3.1-4.8
	c2.6-2,5.3-3.8,8.2-5.5l0.1-1.5l-27.5-4.9c-1.2-6,0-7.4,6.1-7.4c5.8,0,11.7,0.2,17.5,0c4.1-0.2,8.3-0.9,13.7-1.5
	c-4.5-4.3-8-7.9-11.7-11.1c-4.3-3.8-4.1-7.1,1.2-9.4c2.5-1.2,5.2-1.9,8-2.3C389.8,292.5,397.6,291.9,406.2,291.1L406.2,291.1z
	 M109.6,359.2c-1.2,0.7-2.3,1.4-3.4,2.3c-7.6,7.5-15.1,15-22.8,22.4c-1.9,1.9-4.2,3.3-6.8,4.2c-16,5-32.1,9.8-48.3,14.5
	c-3.4,1-4.7,2.5-4.6,6.2c0.2,14.3,0.1,28.7,0.1,43c0,1.5,0.2,2.9,0.3,4.5h157.3v-70.4c-2.1,3.2-12.5,1.6-23.2-4.3l3.1-17.3l-4.5-0.8
	l-0.8-7.7h-23.4c7,3.3,15.6,2.8,20.2,10.9c-9.6,7.5-20.2,12.2-31.4,16c-2.9,1-4.6,0.1-5.5-3C114.1,373,111.9,366.4,109.6,359.2
	L109.6,359.2z M48,165.6l1.3,0.8C81.1,120.2,120,81.7,169.1,53.9c-5.3-9.4-10.3-18.5-15.5-27.5c-0.6-1.1-2.7-1.9-4.1-1.9
	c-14-0.4-27.9-0.7-41.9-0.8c-25.8-0.1-51.6,0-77.5,0c-1.9,0-3.9,0.2-6,0.3v94.2H48V165.6z M48,223.1c8-9,15.6-17.4,23.1-26
	c9.5-11,18.5-22.5,28.3-33.2c9-9.9,18.5-19.5,28.5-28.5s20.5-17.8,31.2-26c8.4-6.4,17.4-12.1,26.3-17.9c2.6-1.7,3.8-3.1,1.6-6.2
	c-2.7-4-5-8.2-7-12.6c-1.6-3.4-3.5-3.4-6.2-1.6c-4.3,2.8-8.9,5.3-12.9,8.4c-14.7,11.5-29.4,23-43.8,34.9c-8.1,6.6-15.8,13.7-23,21.2
	c-8.1,8.9-15.8,18.3-23,28c-7.3,9.8-14,20-20.8,30.1c-1.3,1.9-2,4.1-2.2,6.4C47.8,207.6,48,215.1,48,223.1L48,223.1z M348.8,24.8
	l-0.2,0.9c4.4,0.6,8.8,0.9,13.1,2c33.1,8.2,66.4,14.8,100.7,14.1c2.9-0.1,4.3,0.9,4.8,3.6c1.5,7.5,2.9,15.1,4.8,22.5
	c0.4,1.6,2.4,2.7,3.7,4.1c0.8-1.5,2.3-3,2.3-4.5c0.2-13,0.1-26,0.1-39c-0.1-1.3-0.2-2.5-0.5-3.8L348.8,24.8z M48.5,283.2v81.3
	c11.7-16.3,29.4-17.6,46.4-23.3c-13.8-8.9-26.9-16.5-43.6-21.3c2.5-2,3.8-3.6,5.5-4.2c8.9-2.7,17.9-5.1,28.3-8L48.5,283.2z
	 M127.3,315.7l1.8,0.8c2.7-4.1,5.9-7.9,8.1-12.2c7.5-14.2,14.8-28.5,22.1-42.8c1.2-2.4,3.5-4.6,0.9-7.7c-0.4-0.4,0.4-2.3,1-2.9
	c1.9-1.8,4-3.4,6.1-5.1c16.3-13,31.5-27.3,50.6-36.8c-0.6-1.7-1.2-3.2-1.8-4.7c-0.3-0.6-0.6-1.5-1-1.6c-1.8-0.5-4.2-1.6-5.4-1
	c-19.3,10.7-34.6,26.3-48.7,42.9c-11.6,13.7-20.3,29.4-27,46C130.9,298.6,129.5,307.3,127.3,315.7L127.3,315.7z M330.9,55.9
	c15.8,0.8,30.4,2,45,2.2c20.6,0.2,39.7-2.9,43.3-6.4c-0.8-0.5-1.7-0.9-2.7-1.2c-23.9-3.8-47.7-7.6-71.6-11.3
	c-1.7-0.3-4.4,0.4-5.2,1.6C336.6,45.3,334.2,50.1,330.9,55.9z M477.8,118.9v-24l-21.5,24H477.8z M46.6,365.2l-0.7-0.9H24.2v19
	L46.6,365.2z M71.5,270.5c-3.4-13.2-15.3-15.6-23.3-22.4c-0.1,3.4-0.6,8,1.2,9.3C56,262.2,63.5,265.9,71.5,270.5z M155.5,321.9
	c-3.7,6.1-7.9,11.7-9.5,18.5C153.2,336.3,159.4,331.8,155.5,321.9L155.5,321.9z"/>
<path class="st1" d="M754,273.8v104.1c1.8,0.1,3.4,0.2,5,0.2c11.5,0,23,0.3,34.5-0.1c5.6-0.2,10.2,0.8,13.2,5.7
	c1.3,2.1,2.7,4.6,2.8,6.9c0.2,22.7,0.1,45.3,0.1,68c0,6.4-6.1,12.4-12.6,12.4H572c-7.2,0-13-5.8-13-13l0,0c0-22.5,0-45,0-67.5
	c0-5.8,6.5-12.3,12.3-12.3c16,0,32,0,48.4,0V97h-49c-5.9,0-11.7-5.7-11.7-11.4c0-22.8,0-45.7,0-68.5c0-5.9,6-12.1,11.9-12.1
	c91.2,0,182.3-0.2,273.5,0.1c22.7,0.1,45.1,3.3,66.5,11.7c22.8,8.9,40.8,23.6,54.6,44c8.5,12.4,15,26.1,19.4,40.4
	c4.8,15.9,6.4,32.6,4.7,49.1c-1.2,11.7-4.1,23.4-7.4,34.7s-9.9,21.5-17.4,30.8c-13.1,16.3-29.5,28.3-47.8,38.1
	c-0.5,0.3-1,0.7-1.4,1.1c4.3,8,8.6,16,12.8,23.9c11.6,21.7,23.2,43.3,34.8,65c5.6,10.5,11,21.1,16.9,31.4c0.9,1.5,3.8,2.6,5.8,2.6
	c14.8,0.2,29.7,0.1,44.5,0.1c6,0,13.4,7.3,13.4,13.2c0,22.2,0,44.3,0,66.5c0,6-6.9,13.1-12.8,13.1c-42.7,0-85.3,0-128,0
	c-5.8,0.2-11.1-3.1-13.6-8.3c-7.3-14.3-14.4-28.6-21.7-42.9c-13.4-25.8-26.9-51.5-40.3-77.4c-7.4-14.2-14.5-28.6-21.8-42.8
	c-4-7.8-8.1-15.5-12.3-23.2c-0.6-1.1-2-2.5-3.1-2.5C778.4,273.8,766.4,273.8,754,273.8z M574.8,454.6c1.9,0.1,3.1,0.2,4.2,0.2
	c70,0,140,0,210,0.1c4.1,0,5.1-1.5,5.1-5.2c-0.2-16.5-0.3-33-0.1-49.5c0.1-4.8-1.5-6-6-5.9c-12.1,0.2-24.3,0.3-36.4,0
	c-8.9-0.2-13.5-4.9-14.1-13.8c-0.3-4.1,0-8.3,0-12.4c-0.1-32.7-0.3-65.3-0.4-98c0-5.1,7.3-13,12.1-13c14.7-0.1,29.4-0.6,44,0.3
	c4.2,0.3,9.6,3.8,12,7.4c5.7,8.8,10,18.6,14.9,28l22.6,43.5c5.1-4.9,9.5-10.6,15.2-14.3c9.5-6.4,11.7-14.2,8-24.6
	c-1.2-3.5-3-5.6-6.4-6.8c-7.8-2.7-15.5-5.8-23.4-8.3c-3.5-1.1-4.4-3-4-6.2c0.9-7.7,2.2-15.4,2.7-23.1c0.3-4.2,2.5-5.3,5.9-5.9
	c7.5-1.3,15-3,22.5-3.9c5.5-0.6,8.8-3,10.3-8.2c0.3-1.6,0.9-3.2,1.7-4.7c2.7-4,1-7-1.5-10.2c-4.7-5.9-8.9-12-13.8-17.7
	c-3.3-3.8-2.8-6.7,0.4-10.3c4.6-5,8.8-10.3,12.7-15.9c3.2-4.8,6.4-4.5,11-2.5c7.4,3.4,14.9,6.3,22.5,9.2c6.8,2.6,16.8-4.8,16.5-12
	c-0.4-8.6-1.2-17.2-2-25.7c-0.3-3.4,1.1-5.1,4.3-6.2c8.2-2.6,16.2-5.7,24.5-8.1c1.6-0.5,4.6,0.7,5.7,2.1c3.9,4.9,7.3,10.3,11,15.4
	c1.9,2.7,3.9,5.4,6.4,8.9c2.2-15.6,2-30-1.1-44.1c-4-18.3-12.4-34.6-23.7-49.5c-8.8-11.8-20.4-21.4-33.7-27.9
	c-21.8-10.5-45-14.4-68.7-14.5c-88.3-0.4-176.6-0.1-264.9-0.1h-5.3v38.3c5-0.3,9.1-0.3,11.4-5.6c3.1-7.1,7.2-13.8,10.7-20.7
	c2-3.9,4.8-5.1,8.9-4c7.8,2,15.7,3.7,23.5,6c1.7,0.5,4,2.8,4.2,4.4c1,9.7,1.4,19.4,2.1,29.2c0.3,5,9.8,10.6,14.3,8.2
	c7.9-4.2,15.8-8.4,23.4-13c3.5-2.2,5.9-2,8.7,0.9c5.7,6.1,11.4,12.1,17.3,17.9c2.8,2.8,2.8,5.2,0.9,8.4c-4.3,7.1-8.4,14.3-12.6,21.4
	c-3.9,6.5,1,16.5,8.5,17c8.6,0.6,17.3,0.9,25.9,1.6c2,0.2,5.2,1.6,5.5,3c2.1,9.7,3.7,19.5,5.1,29.3c0.2,1.2-1.4,3.3-2.7,4
	c-5.3,3.1-10.8,5.9-16.3,8.4c-6.5,2.8-11.7,5.7-11.5,14.5c0.1,4.2,0.5,6.7,3.8,9c7.3,5.2,14.5,10.5,21.5,16.1
	c1.4,1.1,2.6,4.1,2.1,5.7c-2.6,8.2-5.5,16.3-8.9,24.2c-1.1,2-3.2,3.3-5.4,3.5c-6.8-0.2-13.7-0.5-20.2-2c-8.1-1.9-13,0.8-17.3,7.6
	c-2.7,4.3-3.2,7.9-1.1,12.4c3.1,7,5.5,14.2,8.3,21.2c1.3,3.4,1.1,6.1-2,8.3c-6,4.5-12,8.9-17.8,13.6c-3.3,2.7-5.9,2.6-9.1-0.2
	c-6-5.3-12.4-10.2-19.6-16c0,3,0,4.8,0,6.5c-0.2,27.5-0.3,55-0.5,82.5c0,6-6.3,12.2-12.3,12.2c-14.8,0-29.7,0.1-44.5-0.1
	c-3.8,0-4.8,1.2-4.8,4.9c0.2,11.8,0.1,23.7,0.1,35.5C574.8,441.5,574.8,447.8,574.8,454.6z M857.3,364.6c1.9,4,3.7,7.9,5.7,11.7
	c12.7,24.5,25.4,49,37.9,73.6c1.8,3.6,3.8,5.1,7.9,5c37.8-0.1,75.6-0.1,113.4-0.1h4.8v-59.7c-4.7,0.7-7.5,2.4-8.4,7.3
	c-1.5,8.4-3.9,16.7-5.3,25.2c-0.7,3.8-2.8,5.2-5.9,5.5c-7.6,0.6-15.3,0.8-22.9,1.2c-3.5,0.2-5.1-1.5-6-4.7
	c-1.4-4.8-3.9-9.3-4.5-14.2c-1.7-12.5-9.3-17.3-20.9-17.5c-2.3,0-5.3,0.6-6.9,2.1c-6.3,5.9-12.3,12.1-18.3,18.4
	c-2.4,2.5-4.6,3.1-7.8,1.1c-6.2-3.8-12.6-7.3-19-10.6c-3.3-1.8-4.4-4.1-3.3-7.7c1.6-5.5,2.9-11.2,4.7-16.7
	c2.7-8.3,3.2-15.8-5.4-21.1c-1.1-0.8-2.1-1.7-2.8-2.8c-2-2.9-4.6-3.1-7.9-2.4C877,360.5,867.4,362.5,857.3,364.6L857.3,364.6z
	 M637.3,112.7v138C684.6,212.5,678.1,142.8,637.3,112.7L637.3,112.7z M899.2,258.7c-12.5,46.6,16,93.9,57.1,106L899.2,258.7z
	 M958.7,196.4c-19.1,3-46.8,26.8-52.1,44.4C927.6,230.2,946.1,217,958.7,196.4L958.7,196.4z"/>
<path class="st0" d="M319.5,437.3l26.8,7.9c1.7,0.6,3.5,1.1,5.3,1.3c2.7,0.2,7.4,0.6,7.8-0.4c1.2-3.1,1.8-7.3,0.7-10.3
	c-3.7-9.8-8.5-19.1-12.3-28.8c-2-5-2.7-10.5-4.2-16.5c7.1-1.1,13.8-3.1,20.5-3.1c6.1,0,10.3-2.5,14.4-6.2c1.5-1.5,3.2-2.9,5-4
	c7.8-4.3,10.8-10.5,8.9-19.3c-0.5-2.9-1.3-5.8-2.3-8.6c-1.4-2.9-0.9-6.3,1.3-8.7c0.4-0.5,1.1-1.2,1-1.6c-1.7-6.1,3.1-9.4,5.5-13.9
	c1.9-3.6,1-8.7,1.1-13.1c-0.1-2.4-0.2-4.7-0.6-7.1l25.8-6.6l-20.9-50.7c2.7-0.9,5.1-1.8,7.5-2.7c5.6-2.1,7.4-6.4,5.1-11.9
	c-5.7-13.8-11.4-27.5-17.1-41.3c-1.6-3.9-1.2-7.1,1.8-10.4c15.9-17.2,31.5-34.6,47.3-52c1.8-1.9,3.3-4,5.9-7.2v242.6h24.1V457
	c-2.2,0.1-4.3,0.3-6.4,0.3c-49-0.2-97.9-0.4-146.9-0.6c-3.8,0-5.5-0.8-5.2-5C319.7,447.2,319.5,442.5,319.5,437.3z"/>
<path class="st0" d="M406.3,291.1c-8.6,0.8-16.5,1.5-24.4,2.4c-2.8,0.4-5.5,1.2-8,2.3c-5.2,2.3-5.5,5.6-1.2,9.4
	c3.7,3.3,7.2,6.8,11.7,11.1c-5.4,0.6-9.5,1.3-13.7,1.5c-5.8,0.2-11.7,0.1-17.5,0c-6.1,0-7.3,1.4-6.1,7.4l27.5,4.9l-0.1,1.5
	c-2.8,1.7-5.5,3.5-8.2,5.5c-1.5,1.2-2.6,2.9-3.1,4.8c-0.8,3,0.7,5.3,4,4.2c4.1-1.4,6.1,0.7,7.3,3.9c1.6,4.3,2.7,8.7,4.1,13.2
	c-1.3,0.7-2.2,0.9-2.7,1.5c-8.7,10-19.3,6.4-29.6,4.2c-5.7-1.1-11.2-2.7-16.6-4.8h14.8v-97.8l-13.5-4c-14.6,21.1-29,41.9-43.5,62.5
	c-1.3,1.5-3.2,2.3-5.2,2.4c-14.5,0.2-29,0.1-43.5,0.1c-6.6,0-9.4-4.8-6-10.6c2.7-4.5,6.1-8.6,9.1-12.9c2.5-3.5,4-7.1,1.9-13
	c-4,3.4-7.6,6.3-11.1,9.3c-3.7,3.3-7.1,7-11,10c-2.8,2.1-5.8,1.5-8.3-1.5c-7.3-8.6-14.7-17.1-22.2-25.5c-3.9-4.3-5.5-8.6-4.6-14.8
	c1.2-7.5,0.6-15.2,1.2-22.8c0.3-2.1,1.4-4,3.2-5.2c6.6-3.4,13.5-6.1,20.2-9.3c3.8-1.8,6.7-0.3,9.3,2.2c11.8,11.6,22.9,23.6,27.8,40
	c0.3,1.1,2.4,2.7,3.3,2.5c7.1-2,14.2-4.4,21.2-6.8c4-1.3,4-4.2,2.1-7.1c-2.9-4.5-6.2-8.6-9-13.1c-2.4-3.5-4.5-7.3-6.3-11.2
	c-0.5-1.2,0.7-3.9,1.9-5c10.9-9.6,21.9-19.1,33.1-28.5c5.1-4.3,5.5-6.1,2-12s-6.9-11.6-10.1-17.5c-1.3-2.5-0.4-4.3,2.6-5.1
	c13.6-3.5,27.2-6.8,40.6-10.7c9.3-2.7,16.9,0.7,24.5,5.1c6.3,3.6,12.6,7.3,19,10.9c4.5,2.6,7.1,6,9,11.3c4.8,14.1,11,27.7,16.5,41.5
	c1.1,2.9,1.9,5.9,2.9,9.1L399,237c-7.8,1.6-9.3,3.5-7,10.9c3.9,12.6,8.3,25,12.5,37.6C404.9,287.1,405.4,288.6,406.3,291.1z
	 M362.1,237.5l-0.4,1.6c-5.8,0.3-11.5,0.5-17.3,0.8c-3,0.1-6-0.2-9,0.2c-1.4,0.3-2.5,1.3-3.2,2.5c-0.3,0.6,1.1,2.5,2.1,2.9
	c3,1.4,6.1,3.4,9.1,3.4c10.7-0.3,18.7,3.3,22.4,13.9c1.5,4.3,5.2,3.3,8,2.8c1.7-0.3,3.7-2.5,4.3-4.2c1.1-3.5,2.3-6.4,5.4-8.9
	c2.3-1.8,3.9-5.4,4.6-8.4c2.3-10.2-8.7-24.1-19.1-24c-12.5,0-24.9,0.2-37.3,0.9c-6.7,0.4-13.6,1.3-18.1,7.1c-0.9,1.2-0.6,3.3-0.9,5
	c1.6-0.1,3.3,0,4.8-0.5s2.3-1.9,3.5-2.7c3.5-2.3,6.7-3.8,9,1.7c0.5,1.1,3,2,4.5,2c4.8,0,9.6-0.8,14.4-0.5S358.9,233.2,362.1,237.5z
	 M217.6,283.1l1.5-1.1c3.7,2.4,7.4,5.1,11.3,7.2c1.7,0.9,3.9,0.7,5.9,1c-0.4-2.1,0-5-1.2-6.1c-4.9-4.4-4.4-9.2-2.3-14.5
	c1-2.5,1.5-5.1,2.8-7.4c1.9-3.6,0.8-6.7-2.1-8.5c-7-4.3-14.3-8.2-21.6-11.9c-1.2-0.6-3.9-0.6-4.6,0.2c-3.5,4.1-6.8,8.4-9.9,12.9
	c-0.4,0.7,0.2,2.8,0.9,3.4c1.2,0.5,2.5,0.5,3.6-0.1c1.6-1.1,2.6-3.1,4.3-4.1s4.5-2.1,6-1.4c1.8,0.8,4.1,3.7,3.8,5.3
	c-0.9,4.8-2.7,9.4-4.4,14c-1,2.6-3.9,5.7-3.2,7.6c2.5,7.3,5.8,14.2,9.7,20.9c1.2,2,7,3.9,7.9,3c3.1-3,0-6.2-1.8-9.1
	C221.8,290.6,219.7,286.9,217.6,283.1z"/>
<path class="st0" d="M109.7,359.2c2.3,7.2,4.4,13.8,6.3,20.5c0.9,3.1,2.6,4,5.5,3c11.2-3.8,21.9-8.5,31.4-16
	c-4.6-8.1-13.2-7.7-20.2-10.9h23.4l0.8,7.7l4.5,0.8l-3.1,17.3c10.8,5.9,21.1,7.5,23.2,4.3v70.4H24.2c-0.1-1.6-0.3-3.1-0.3-4.5
	c0-14.3,0.1-28.7-0.1-43c-0.1-3.7,1.2-5.2,4.6-6.2c16.2-4.7,32.3-9.5,48.3-14.5c2.6-0.9,4.9-2.3,6.8-4.2
	c7.7-7.3,15.2-14.9,22.8-22.4C107.3,360.6,108.5,359.8,109.7,359.2z"/>
<path class="st0" d="M48,165.6v-47.5H24.2V24c2.1-0.1,4-0.3,6-0.3c25.8,0,51.6-0.1,77.5,0c14,0.1,27.9,0.4,41.9,0.8
	c1.4,0,3.4,0.8,4.1,1.9c5.3,9,10.3,18.1,15.5,27.5C120,81.6,81.1,120.2,49.3,166.4L48,165.6z"/>
<path class="st0" d="M48,223.1c0-8-0.2-15.5,0.1-22.9c0.1-2.3,0.9-4.5,2.2-6.4c6.8-10.1,13.4-20.4,20.8-30.1
	c7.2-9.7,14.9-19.1,23-28c7.2-7.6,14.9-14.7,23-21.2c14.4-11.9,29.1-23.4,43.8-34.9c4-3.2,8.6-5.6,12.9-8.4c2.7-1.8,4.6-1.8,6.2,1.6
	c2,4.4,4.3,8.6,7,12.6c2.1,3.1,1,4.5-1.6,6.2c-8.9,5.8-17.9,11.4-26.3,17.9c-10.7,8.3-21.2,16.9-31.2,26s-19.4,18.6-28.4,28.5
	C89.6,174.5,80.6,186,71,197C63.6,205.7,56,214.1,48,223.1z"/>
<path class="st0" d="M348.8,24.8h128.9c0.2,1.2,0.4,2.5,0.5,3.8c0,13,0.1,26-0.1,39c0,1.5-1.5,3-2.3,4.5c-1.3-1.3-3.3-2.5-3.7-4.1
	c-1.9-7.5-3.3-15-4.8-22.5c-0.5-2.7-2-3.7-4.8-3.6c-34.3,0.7-67.6-5.9-100.7-14.1c-4.3-1.1-8.7-1.4-13.1-2L348.8,24.8z"/>
<path class="st0" d="M48.5,283.2l36.6,24.6c-10.4,2.9-19.4,5.3-28.3,8c-1.7,0.5-3,2.2-5.5,4.2c16.8,4.8,29.9,12.4,43.6,21.3
	c-17,5.7-34.8,7-46.4,23.3V283.2z"/>
<path class="st0" d="M127.3,315.7c2.2-8.4,3.6-17.1,6.8-25c6.6-16.6,15.4-32.4,27-46c14.1-16.6,29.4-32.1,48.7-42.9
	c1.3-0.7,3.6,0.4,5.4,1c0.5,0.1,0.8,1,1,1.6c0.6,1.5,1.2,3,1.8,4.7c-19.1,9.5-34.4,23.9-50.6,36.8c-2.1,1.6-4.2,3.3-6.1,5.1
	c-0.7,0.7-1.4,2.5-1,2.9c2.6,3,0.3,5.3-0.9,7.7c-7.3,14.3-14.6,28.6-22.1,42.8c-2.3,4.3-5.4,8.1-8.1,12.2L127.3,315.7z"/>
<path class="st0" d="M330.9,55.9c3.3-5.7,5.7-10.6,8.7-15.1c0.8-1.2,3.6-1.8,5.2-1.6c23.9,3.6,47.8,7.4,71.6,11.3
	c1,0.3,1.9,0.7,2.7,1.2c-3.6,3.5-22.7,6.6-43.3,6.4C361.3,57.9,346.7,56.7,330.9,55.9z"/>
<path class="st0" d="M477.8,118.9h-21.5l21.5-24V118.9z"/>
<path class="st0" d="M46.6,365.2l-22.4,18.1v-19H46L46.6,365.2z"/>
<path class="st0" d="M71.5,270.5c-8.1-4.7-15.5-8.4-22.1-13.1c-1.8-1.3-1.3-5.9-1.2-9.3C56.3,254.9,68.1,257.3,71.5,270.5z"/>
<path class="st0" d="M155.5,321.9c3.9,10-2.3,14.5-9.5,18.5C147.6,333.6,151.8,328,155.5,321.9z"/>
<path class="st0" d="M574.8,454.6c0-6.8,0-13.2,0-19.5c0-11.8,0.1-23.7-0.1-35.5c-0.1-3.7,1-4.9,4.8-4.9c14.8,0.2,29.7,0.1,44.5,0.1
	c6,0,12.3-6.3,12.3-12.2c0.2-27.5,0.4-55,0.5-82.5c0-1.8,0-3.5,0-6.5c7.2,5.8,13.6,10.7,19.6,16c3.2,2.8,5.8,2.9,9.1,0.2
	c5.8-4.7,11.8-9.1,17.8-13.6c3.1-2.3,3.3-5,2-8.3c-2.8-7-5.3-14.3-8.3-21.2c-2-4.6-1.5-8.1,1.1-12.4c4.2-6.8,9.2-9.4,17.3-7.6
	c6.5,1.5,13.5,1.8,20.2,2c2.3-0.2,4.3-1.5,5.4-3.5c3.3-7.9,6.3-16,8.9-24.2c0.5-1.6-0.7-4.6-2.1-5.7c-7-5.6-14.3-10.9-21.5-16.1
	c-3.3-2.4-3.7-4.8-3.8-9c-0.2-8.9,4.9-11.7,11.5-14.5c5.6-2.5,11-5.3,16.3-8.4c1.3-0.7,2.8-2.8,2.7-4c-1.4-9.8-3-19.6-5.1-29.3
	c-0.3-1.4-3.5-2.8-5.5-3c-8.6-0.8-17.3-1-25.9-1.6c-7.5-0.5-12.4-10.5-8.5-17c4.2-7.1,8.3-14.3,12.6-21.4c1.9-3.1,1.9-5.6-0.9-8.4
	c-5.9-5.8-11.6-11.9-17.3-17.9c-2.8-2.9-5.2-3-8.7-0.9c-7.6,4.7-15.5,8.8-23.4,13c-4.4,2.4-13.9-3.2-14.3-8.2
	c-0.6-9.7-1.1-19.5-2.1-29.2c-0.2-1.6-2.5-3.9-4.2-4.4c-7.8-2.3-15.7-4-23.5-6c-4.1-1.1-7,0.1-8.9,4c-3.5,7-7.6,13.6-10.7,20.7
	c-2.3,5.3-6.4,5.3-11.4,5.6V21.1h5.3c88.3,0,176.6-0.2,264.9,0.1c23.7,0.1,46.9,4,68.5,14.5c13.3,6.5,24.8,16,33.7,27.9
	c11.3,14.9,19.7,31.2,23.7,49.5c3.1,14.1,3.3,28.5,1.1,44.1c-2.5-3.5-4.5-6.2-6.4-8.9c-3.6-5.2-7-10.5-11-15.4
	c-1.1-1.4-4.1-2.5-5.7-2.1c-8.2,2.4-16.3,5.5-24.5,8.1c-3.2,1-4.6,2.7-4.3,6.2c0.8,8.6,1.6,17.1,2,25.7c0.4,7.3-9.7,14.6-16.5,12
	c-7.6-2.8-15.2-5.8-22.5-9.2c-4.6-2.1-7.8-2.3-11,2.5c-3.9,5.6-8.1,10.9-12.7,15.9c-3.1,3.5-3.6,6.4-0.4,10.3
	c4.8,5.7,9.1,11.9,13.8,17.7c2.5,3.2,4.3,6.2,1.5,10.2c-0.8,1.5-1.4,3-1.7,4.7c-1.5,5.2-4.9,7.6-10.3,8.2c-7.5,0.9-15,2.6-22.5,3.9
	c-3.4,0.6-5.6,1.7-5.9,5.9c-0.5,7.7-1.7,15.4-2.7,23.1c-0.4,3.2,0.5,5.1,4,6.2c7.9,2.5,15.6,5.6,23.4,8.3c3.5,1.2,5.2,3.3,6.4,6.8
	c3.7,10.4,1.6,18.2-8,24.6c-5.7,3.8-10.1,9.4-15.2,14.3l-22.6-43.5c-4.9-9.4-9.2-19.2-14.9-28c-2.4-3.6-7.8-7.1-12-7.4
	c-14.6-0.9-29.3-0.4-44-0.3c-4.8,0-12.1,8-12.1,13c0.1,32.7,0.3,65.3,0.4,98c0,4.1-0.3,8.3,0,12.4c0.6,8.9,5.2,13.6,14.1,13.8
	c12.1,0.3,24.3,0.2,36.4,0c4.4-0.1,6.1,1.2,6,5.9c-0.3,16.5-0.1,33,0.1,49.5c0,3.7-1,5.2-5.1,5.2c-70-0.1-140-0.2-210-0.1
	C577.9,454.8,576.7,454.7,574.8,454.6z M737,141.5c0,16,0,32,0,48c0,6,7,13,13,13.1c12,0,24,0.1,36,0c18-0.2,35.5-2.5,52-10.5
	c10.9-5.3,19.2-13,24.5-24.2s6.5-22.9,5.4-34.8c-0.9-10.1-4.1-19.7-10.5-27.8c-13-16.5-31.3-22.8-51.3-24
	c-18.8-1.2-37.6-0.4-56.5-0.5c-5.6,0-12.6,7.1-12.6,12.8C737.1,109.5,737,125.5,737,141.5z"/>
<path class="st0" d="M857.3,364.6c10.1-2.2,19.7-4.1,29.1-6.4c3.3-0.8,5.8-0.5,7.9,2.4c0.7,1.1,1.7,2.1,2.8,2.8
	c8.6,5.3,8.2,12.8,5.4,21.1c-1.8,5.5-3,11.1-4.7,16.7c-1.1,3.6,0,5.9,3.3,7.7c6.4,3.4,12.9,6.8,19,10.6c3.3,2,5.4,1.4,7.8-1.1
	c6-6.2,11.9-12.5,18.3-18.4c1.6-1.5,4.6-2.1,6.9-2.1c11.6,0.1,19.3,4.9,20.9,17.5c0.6,4.8,3.1,9.4,4.5,14.2c0.9,3.2,2.5,4.9,6,4.7
	c7.6-0.4,15.3-0.6,22.9-1.2c3.1-0.2,5.2-1.7,5.9-5.5c1.5-8.5,3.8-16.7,5.3-25.2c0.9-4.8,3.7-6.5,8.4-7.3v59.7h-4.8
	c-37.8,0-75.6-0.1-113.4,0.1c-4.1,0-6.1-1.4-7.9-5c-12.5-24.6-25.3-49-37.9-73.6C861,372.5,859.3,368.6,857.3,364.6z"/>
<path class="st0" d="M637.4,112.7c40.7,30.1,47.3,99.8,0,138V112.7z"/>
<path class="st0" d="M899.2,258.7l57.1,106C915.3,352.5,886.7,305.3,899.2,258.7z"/>
<path class="st0" d="M958.7,196.4c-12.6,20.6-31.1,33.8-52.1,44.4C911.9,223.2,939.6,199.5,958.7,196.4z"/>
<path class="st1" d="M362.1,237.5c-3.3-4.3-8.4-4.4-13.2-4.6s-9.6,0.6-14.4,0.5c-1.6,0-4.1-0.9-4.5-2c-2.3-5.5-5.6-3.9-9-1.7
	c-1.2,0.8-2.2,2.2-3.5,2.7s-3.2,0.4-4.8,0.5c0.3-1.7,0-3.8,0.9-5c4.5-5.9,11.5-6.8,18.1-7.1c12.4-0.6,24.9-0.9,37.3-0.9
	c10.4,0,21.5,13.8,19.1,24c-0.7,3-2.3,6.6-4.6,8.4c-3.2,2.5-4.3,5.4-5.4,8.9c-0.5,1.8-2.6,4-4.3,4.2c-2.8,0.5-6.4,1.5-8-2.8
	c-3.8-10.6-11.7-14.1-22.4-13.9c-3,0.1-6.2-2-9.1-3.4c-1-0.5-2.3-2.4-2.1-2.9c0.6-1.3,1.8-2.2,3.2-2.5c3-0.4,6-0.1,9-0.2
	c5.8-0.2,11.5-0.5,17.3-0.8L362.1,237.5z"/>
<path class="st1" d="M217.6,283.1c2.1,3.7,4.3,7.5,6.5,11.2c1.7,2.9,4.9,6.1,1.8,9.1c-0.9,0.9-6.7-1-7.9-3
	c-3.9-6.6-7.1-13.7-9.7-20.9c-0.7-1.9,2.2-5,3.2-7.6c1.7-4.6,3.6-9.2,4.4-14c0.3-1.6-2-4.5-3.8-5.3c-1.5-0.7-4.2,0.4-6,1.4
	s-2.7,3-4.3,4.1c-1.1,0.6-2.4,0.7-3.6,0.1c-0.8-0.5-1.4-2.7-0.9-3.4c3-4.5,6.4-8.8,9.9-12.9c0.7-0.8,3.4-0.8,4.6-0.2
	c7.3,3.8,14.6,7.6,21.6,11.9c3,1.8,4.1,4.9,2.1,8.5c-1.2,2.3-1.8,5-2.8,7.4c-2,5.3-2.6,10.1,2.3,14.5c1.2,1.1,0.9,4,1.2,6.1
	c-2-0.3-4.2-0.1-5.9-1c-3.9-2.1-7.5-4.8-11.3-7.2L217.6,283.1z"/>
<path class="st0" d="M737,141.5c0-16,0-32,0-48c0-5.7,7-12.8,12.6-12.8c18.8,0.1,37.7-0.6,56.5,0.5c19.9,1.2,38.2,7.4,51.3,24
	c6.4,8.1,9.6,17.8,10.5,27.8c1,11.9,0,23.6-5.4,34.8s-13.6,18.9-24.5,24.2c-16.4,8-34,10.3-52,10.5c-12,0.1-24,0-36,0
	c-6,0-13-7.1-13-13.1C737,173.5,737,157.5,737,141.5z M754,186.1c9.2,0,18,0,26.8,0c12.9,0,25.8-0.2,38.3-3.9
	c8.4-2.4,16.5-5.6,22.6-12.3c8.9-9.7,10.3-21.3,9.8-34c-0.7-19.2-13.3-30.3-28.2-35.1c-12.3-4-25.1-3.9-37.8-3.9H754L754,186.1z"/>
<path class="st1" d="M754,186.1V97h31.5c12.8,0,25.5-0.1,37.8,3.9c14.9,4.9,27.5,15.9,28.2,35.1c0.5,12.7-0.9,24.3-9.8,34
	c-6.2,6.7-14.2,9.8-22.6,12.3c-12.5,3.6-25.4,3.9-38.3,3.9C772,186.1,763.3,186.1,754,186.1z"/>
</svg>
